<svg width="512" height="512" viewBox="0 0 512 512" fill="none" xmlns="http://www.w3.org/2000/svg">
<g clip-path="url(#clip0_92_5)">
<path d="M224 362.667C218.39 362.671 212.835 361.569 207.651 359.424C202.468 357.279 197.758 354.133 193.792 350.165L113.067 271.253C109.021 267.293 106.715 261.888 106.655 256.226C106.595 250.565 108.786 245.112 112.747 241.067C116.707 237.021 122.113 234.715 127.774 234.655C133.435 234.595 138.888 236.786 142.933 240.747L223.851 319.829L369.045 176.896C373.14 173.293 378.459 171.396 383.909 171.593C389.359 171.79 394.527 174.067 398.35 177.956C402.174 181.845 404.363 187.051 404.467 192.504C404.572 197.956 402.584 203.242 398.912 207.275L253.995 350.357C250.05 354.281 245.37 357.387 240.223 359.5C235.076 361.612 229.563 362.688 224 362.667ZM512 405.333V263.253C512.796 197.492 488.685 133.865 444.508 85.1451C400.331 36.4257 339.36 6.22169 273.835 0.597429C237.262 -1.96134 200.566 3.36521 166.23 16.2167C131.894 29.0682 100.719 49.1448 74.8141 75.0881C48.9092 101.031 28.8789 132.236 16.0783 166.591C3.27774 200.946 -1.9944 237.65 0.618582 274.219C10.0479 409.771 129.749 512 279.104 512H405.333C433.613 511.966 460.724 500.717 480.721 480.721C500.717 460.724 511.966 433.613 512 405.333ZM270.933 43.1788C325.684 48.0222 376.574 73.4062 413.378 114.231C450.182 155.055 470.172 208.295 469.333 263.253V405.333C469.333 422.307 462.59 438.586 450.588 450.588C438.586 462.591 422.307 469.333 405.333 469.333H279.104C150.379 469.333 51.1999 386.133 43.1999 271.275C41.0997 242.018 45.0554 212.642 54.8198 184.983C64.5843 157.324 79.9477 131.975 99.9503 110.521C119.953 89.067 144.165 71.9684 171.073 60.2934C197.982 48.6184 227.009 42.6179 256.341 42.6668C261.184 42.6668 266.069 42.8588 270.933 43.1788Z" fill="#3AC08F"/>
</g>
<defs>
<clipPath id="clip0_92_5">
<rect width="512" height="512" fill="white"/>
</clipPath>
</defs>
</svg>
