<svg width="512" height="470" viewBox="0 0 512 470" fill="none" xmlns="http://www.w3.org/2000/svg">
<path d="M386.581 147.086C411.541 172.046 411.541 212.622 386.581 237.582L331.477 292.707C327.317 296.867 321.856 298.958 316.395 298.958C310.933 298.958 305.472 296.867 301.312 292.707C292.971 284.366 292.971 270.883 301.312 262.542L356.416 207.416C364.736 199.096 364.736 185.571 356.416 177.251L301.312 122.126C292.971 113.784 292.971 100.302 301.312 91.9602C309.653 83.6188 323.136 83.6188 331.477 91.9602L386.581 147.086ZM210.688 122.126C219.029 113.784 219.029 100.302 210.688 91.9602C202.347 83.6188 188.864 83.6188 180.523 91.9602L125.419 147.086C100.459 172.046 100.459 212.622 125.419 237.582L180.523 292.707C184.683 296.867 190.144 298.958 195.605 298.958C201.067 298.958 206.528 296.867 210.688 292.707C219.029 284.366 219.029 270.883 210.688 262.542L155.584 207.416C147.264 199.096 147.264 185.571 155.584 177.251L210.688 122.126ZM512 107V277.667C512 336.483 464.149 384.334 405.333 384.334H277.333V427H362.667C374.443 427 384 436.536 384 448.334C384 460.131 374.443 469.667 362.667 469.667H149.333C137.557 469.667 128 460.131 128 448.334C128 436.536 137.557 427 149.333 427H234.667V384.334H106.667C47.8507 384.334 0 336.483 0 277.667V107C0 48.1842 47.8507 0.333496 106.667 0.333496H405.333C464.149 0.333496 512 48.1842 512 107ZM469.333 107C469.333 71.7148 440.619 43.0002 405.333 43.0002H106.667C71.3813 43.0002 42.6667 71.7148 42.6667 107V277.667C42.6667 312.952 71.3813 341.667 106.667 341.667H405.333C440.619 341.667 469.333 312.952 469.333 277.667V107Z" fill="#3B4856"/>
</svg>
