<svg width="20" height="20" viewBox="0 0 20 20" fill="none" xmlns="http://www.w3.org/2000/svg">
<circle cx="10" cy="10" r="10" fill="white"/>
<path d="M10.8164 15.0385V9.63989C10.8478 9.62063 10.9257 9.60137 11.0525 9.58211C11.1781 9.56285 11.2962 9.55322 11.408 9.55322C11.8212 9.55322 12.1152 9.66396 12.2847 9.88424C12.4568 10.1057 12.5422 10.4716 12.5422 10.982V15.0373" fill="#222725"/>
<path d="M15.0983 15.0388V10.8246C15.0983 10.3901 15.0518 10.0061 14.9626 9.66904C15.0129 9.64978 15.1058 9.6245 15.2415 9.59682C15.3771 9.56793 15.5166 9.55469 15.6585 9.55469C16.0717 9.55469 16.3694 9.66543 16.5503 9.88571C16.7324 10.1072 16.8216 10.4731 16.8216 10.9835V15.0388" fill="#222725"/>
<path d="M18.4543 8.07914C18.4543 8.11405 18.448 8.14776 18.4342 8.17905C18.3664 8.11766 18.2948 8.06229 18.2207 8.01053C17.8828 7.78063 17.5047 7.62776 17.0865 7.55674C16.667 7.48451 16.2625 7.4472 15.8694 7.4472C15.4247 7.4472 15.0266 7.49535 14.6736 7.59285C14.3207 7.68794 14.013 7.79989 13.7517 7.92387C13.4088 7.73248 13.0358 7.60489 12.6326 7.54109C12.2294 7.4797 11.8199 7.4472 11.4067 7.4472C10.6505 7.4472 10.025 7.50257 9.53016 7.61331C9.03654 7.72405 8.612 7.8372 8.2603 7.95155V15.0137C6.49808 14.7537 5.14659 13.2924 5.14659 11.5302V8.36201H1.51287C1.41364 8.36201 1.33325 8.28498 1.33325 8.18988V8.07674C1.33325 6.56248 2.61441 5.3335 4.19702 5.3335H15.5905C17.1719 5.3335 18.4543 6.56127 18.4543 8.07794V8.07914Z" fill="#222725"/>
</svg>
