<svg width="594" height="453" viewBox="0 0 594 453" fill="none" xmlns="http://www.w3.org/2000/svg">
<g clip-path="url(#clip0_4_34)">
<path d="M478.894 35.7567L465.517 32.2207L455.902 68.7795L469.28 72.3155L478.894 35.7567Z" fill="#BED9FD"/>
<path d="M493.054 34.5165H479.219V72.3245H493.054V34.5165Z" fill="#BED9FD"/>
<path d="M510.493 34.5165H496.658V72.3245H510.493V34.5165Z" fill="#BED9FD"/>
<path d="M527.929 34.5165H514.094V72.3245H527.929V34.5165Z" fill="#BED9FD"/>
<path d="M525.782 40.6719H517.295V45.5949H525.782V40.6719Z" fill="white"/>
<path d="M525.782 52.5931H517.295V57.516H525.782V52.5931Z" fill="white"/>
<path d="M507.818 40.6719H499.331V45.5949H507.818V40.6719Z" fill="white"/>
<path d="M507.818 48.2224H499.331V53.1453H507.818V48.2224Z" fill="white"/>
<path d="M485.993 49.8573C488.341 49.8573 490.244 47.949 490.244 45.5949C490.244 43.2408 488.341 41.3324 485.993 41.3324C483.645 41.3324 481.741 43.2408 481.741 45.5949C481.741 47.949 483.645 49.8573 485.993 49.8573Z" fill="white"/>
<path d="M235.116 227.651C256.444 227.651 273.733 217.698 273.733 205.421C273.733 193.143 256.444 183.19 235.116 183.19C213.788 183.19 196.499 193.143 196.499 205.421C196.499 217.698 213.788 227.651 235.116 227.651Z" fill="#C7DEFD"/>
<path d="M314.278 426.162C311.267 404.181 316.584 371.131 340.574 354.886C366.25 337.499 407.297 343.434 434.07 373.438C440.341 361.978 451.98 354.731 464.261 354.886C479.846 355.083 494.048 367.17 497.374 384.178C498.821 388.129 501.593 393.696 507.114 396.872C520.889 404.796 536.53 389.038 556.783 392.967C560.511 393.69 576.463 397.316 583.079 410.542C589.003 422.384 585.659 438.36 574.963 451.549H322.394C319.36 445.677 315.767 437.033 314.278 426.162Z" fill="#C7DEFD"/>
<path d="M394.349 451.481C394.349 451.481 363.184 452.795 375.034 430.663C360.587 432.778 367.405 410.646 367.405 408.856C352.796 401.696 359.289 386.562 359.289 386.562C359.289 386.562 376.981 385.748 380.228 401.046C394.178 401.651 404.739 409.997 401.006 417.32C416.426 424.154 428.112 447.89 415.291 451.481H394.351H394.349Z" fill="#FED964" stroke="#0C0A0A" stroke-width="5" stroke-linecap="round" stroke-linejoin="round"/>
<path d="M395.312 434.299C395.224 434.214 395.136 434.13 395.05 434.045C391.943 431.011 388.964 427.711 386.159 424.322C385.992 424.414 385.819 424.502 385.639 424.585C385.533 424.634 385.429 424.677 385.322 424.722C388.186 428.192 391.232 431.578 394.42 434.691C394.479 434.749 394.538 434.804 394.598 434.862C394.745 434.767 394.886 434.666 395.017 434.559C395.12 434.478 395.215 434.388 395.311 434.299H395.312Z" fill="white"/>
<path d="M369.074 398.963C367.592 396.513 366.347 394.354 365.375 392.622C364.585 391.214 363.974 390.088 363.562 389.316C363.355 388.93 363.199 388.63 363.094 388.43C363.042 388.329 363.002 388.253 362.975 388.201C362.948 388.15 362.936 388.125 362.936 388.125C362.822 387.903 362.551 387.814 362.331 387.928C362.11 388.042 362.021 388.314 362.135 388.535C362.135 388.535 364.406 392.985 368.325 399.463C368.449 399.402 368.572 399.331 368.694 399.248C368.829 399.156 368.955 399.061 369.074 398.961V398.963Z" fill="white"/>
<path d="M385.574 423.609C382.835 420.258 380.266 416.834 377.917 413.507C377.786 413.601 377.649 413.691 377.505 413.776C377.384 413.846 377.264 413.909 377.141 413.971C377.377 414.306 377.617 414.642 377.858 414.979C379.989 417.959 382.289 421.005 384.728 423.997C384.908 423.923 385.088 423.845 385.268 423.762C385.375 423.714 385.475 423.661 385.576 423.609H385.574Z" fill="white"/>
<path d="M377.399 412.771C375.482 410.033 373.716 407.369 372.127 404.877C371.205 403.434 370.345 402.049 369.545 400.739C369.436 400.828 369.32 400.913 369.2 400.996C369.067 401.088 368.93 401.165 368.793 401.236C370.964 404.796 373.604 408.914 376.618 413.223C376.763 413.153 376.911 413.077 377.055 412.992C377.176 412.922 377.289 412.848 377.399 412.769V412.771Z" fill="white"/>
<path d="M414.434 447.493C408.067 445.053 401.803 440.484 395.966 434.925C395.842 435.043 395.714 435.156 395.579 435.265C395.476 435.346 395.366 435.42 395.258 435.496C401.175 441.14 407.549 445.814 414.112 448.334C414.344 448.422 414.603 448.307 414.693 448.074C414.781 447.841 414.666 447.581 414.434 447.491V447.493Z" fill="white"/>
<path d="M369.545 399.739C370.012 399.369 370.391 398.954 370.694 398.523C371.257 397.722 371.565 396.866 371.736 396.123C371.905 395.379 371.936 394.744 371.936 394.371C371.936 394.152 371.925 394.022 371.925 394.011C371.903 393.762 371.686 393.578 371.439 393.6C371.192 393.622 371.009 393.84 371.029 394.087C371.029 394.087 371.038 394.194 371.038 394.371C371.038 394.802 370.987 395.672 370.667 396.603C370.507 397.068 370.28 397.548 369.961 398.003C369.722 398.343 369.432 398.667 369.076 398.963C368.957 399.063 368.829 399.158 368.696 399.25C368.573 399.333 368.451 399.404 368.327 399.465C367.859 399.7 367.382 399.795 366.898 399.797C366.395 399.797 365.888 399.692 365.407 399.528C364.689 399.283 364.037 398.907 363.571 398.593C363.339 398.436 363.152 398.296 363.024 398.195C362.961 398.144 362.912 398.104 362.88 398.077L362.844 398.047L362.837 398.039C362.651 397.873 362.367 397.891 362.201 398.077C362.036 398.263 362.054 398.548 362.239 398.714C362.255 398.727 362.799 399.212 363.645 399.703C364.068 399.949 364.568 400.196 365.117 400.383C365.668 400.571 366.269 400.699 366.898 400.699C367.522 400.699 368.174 400.564 368.797 400.237C368.933 400.165 369.07 400.088 369.203 399.997C369.324 399.914 369.439 399.829 369.549 399.741L369.545 399.739Z" fill="white"/>
<path d="M377.917 413.507C378.369 413.182 378.743 412.796 379.049 412.375C379.642 411.561 379.98 410.63 380.176 409.742C380.371 408.853 380.423 408.005 380.423 407.342C380.423 406.564 380.351 406.045 380.349 406.03C380.315 405.783 380.088 405.612 379.841 405.646C379.595 405.68 379.424 405.908 379.458 406.155V406.158C379.463 406.202 379.523 406.667 379.523 407.344C379.523 408.163 379.435 409.293 379.076 410.352C378.898 410.883 378.652 411.394 378.322 411.846C378.068 412.195 377.764 412.509 377.399 412.772C377.289 412.852 377.176 412.926 377.055 412.996C376.911 413.079 376.765 413.157 376.618 413.227C375.557 413.736 374.454 413.904 373.457 413.904C372.53 413.904 371.7 413.758 371.106 413.61C370.809 413.536 370.571 413.463 370.409 413.409C370.328 413.382 370.267 413.361 370.226 413.344C370.206 413.337 370.19 413.332 370.181 413.328L370.17 413.324C369.94 413.231 369.677 413.343 369.585 413.574C369.491 413.804 369.603 414.068 369.833 414.162C369.866 414.173 371.416 414.806 373.457 414.808C374.594 414.808 375.889 414.608 377.141 413.974C377.262 413.913 377.384 413.85 377.505 413.779C377.649 413.696 377.786 413.606 377.917 413.51V413.507Z" fill="white"/>
<path d="M386.159 424.322C387.198 423.75 388.026 422.977 388.676 422.109C389.808 420.593 390.415 418.794 390.748 417.184C391.079 415.573 391.133 414.146 391.135 413.366C391.135 412.974 391.12 412.745 391.12 412.738C391.106 412.489 390.892 412.299 390.643 412.316C390.395 412.33 390.206 412.545 390.222 412.794V412.801C390.224 412.841 390.235 413.043 390.235 413.368C390.235 414.351 390.139 416.463 389.459 418.565C389.12 419.615 388.636 420.664 387.956 421.57C387.338 422.392 386.563 423.1 385.574 423.612C385.474 423.665 385.373 423.717 385.267 423.766C385.087 423.847 384.907 423.926 384.727 424C382.007 425.121 379.231 425.406 377.138 425.406C376.092 425.406 375.217 425.336 374.605 425.265C374.299 425.231 374.06 425.195 373.9 425.17C373.819 425.157 373.757 425.146 373.716 425.139C373.696 425.135 373.68 425.132 373.671 425.13H373.66L373.658 425.128C373.415 425.08 373.178 425.238 373.129 425.482C373.081 425.726 373.239 425.964 373.482 426.012C373.504 426.016 374.965 426.308 377.138 426.308C379.375 426.308 382.369 425.996 385.321 424.726C385.427 424.681 385.533 424.636 385.637 424.589C385.817 424.507 385.988 424.419 386.158 424.325L386.159 424.322Z" fill="white"/>
<path d="M395.966 434.925C396.439 434.478 396.833 433.964 397.159 433.406C397.775 432.35 398.151 431.148 398.376 429.937C398.601 428.727 398.675 427.505 398.675 426.411C398.675 424.179 398.365 422.466 398.363 422.448C398.318 422.203 398.084 422.041 397.841 422.084C397.597 422.129 397.435 422.364 397.478 422.607V422.611C397.494 422.696 397.775 424.327 397.775 426.41C397.775 427.815 397.645 429.425 397.231 430.894C397.024 431.628 396.747 432.327 396.383 432.949C396.088 433.456 395.732 433.908 395.314 434.297C395.219 434.386 395.123 434.476 395.021 434.557C394.888 434.664 394.747 434.763 394.601 434.86C393.619 435.505 392.321 435.945 390.908 436.219C389.284 436.537 387.513 436.642 385.907 436.642C384.431 436.642 383.092 436.553 382.124 436.465C381.64 436.421 381.249 436.376 380.979 436.344C380.844 436.328 380.74 436.313 380.669 436.304C380.635 436.299 380.608 436.295 380.59 436.293C380.572 436.291 380.565 436.29 380.565 436.29C380.318 436.254 380.09 436.423 380.054 436.67C380.018 436.918 380.187 437.147 380.434 437.183C380.448 437.183 382.883 437.544 385.906 437.544C387.553 437.544 389.372 437.437 391.079 437.105C392.639 436.799 394.105 436.302 395.26 435.496C395.368 435.42 395.478 435.346 395.581 435.265C395.716 435.156 395.843 435.043 395.968 434.925H395.966Z" fill="white"/>
<path d="M3.81235 449.611C3.81235 449.611 -21.5101 389.004 58.3506 370.453C138.211 351.901 163.532 410.031 163.532 410.031C163.532 410.031 175.226 362.162 232.909 385.234C276.505 402.672 257.027 449.609 257.027 449.609H3.81235V449.611Z" fill="#C7DEFD"/>
<path d="M148.925 409.834L155.545 449.611H160.288L163.534 410.038L148.925 409.834Z" fill="#000001"/>
<path d="M255.892 409.834L249.273 449.611H244.53L241.285 410.038L255.892 409.834Z" fill="#000001"/>
<path d="M271.42 345.203H135.86C133.409 345.203 131.422 347.195 131.422 349.653V408.477C131.422 410.935 133.409 412.927 135.86 412.927H271.42C273.872 412.927 275.859 410.935 275.859 408.477V349.653C275.859 347.195 273.872 345.203 271.42 345.203Z" fill="white" stroke="#0C0A0A" stroke-width="5" stroke-linecap="round" stroke-linejoin="round"/>
<path d="M192.886 352.123H144.162C142.355 352.123 140.89 353.592 140.89 355.404V370.359C140.89 372.171 142.355 373.639 144.162 373.639H192.886C194.694 373.639 196.159 372.171 196.159 370.359V355.404C196.159 353.592 194.694 352.123 192.886 352.123Z" fill="#DDB5A1" stroke="#0C0A0A" stroke-width="5" stroke-linecap="round" stroke-linejoin="round"/>
<path d="M258.892 352.123H210.168C208.361 352.123 206.896 353.592 206.896 355.404V370.359C206.896 372.171 208.361 373.639 210.168 373.639H258.892C260.7 373.639 262.165 372.171 262.165 370.359V355.404C262.165 353.592 260.7 352.123 258.892 352.123Z" fill="#DDB5A1" stroke="#0C0A0A" stroke-width="5" stroke-linecap="round" stroke-linejoin="round"/>
<path d="M235.116 360.993C236.461 360.993 237.551 359.9 237.551 358.551C237.551 357.203 236.461 356.11 235.116 356.11C233.771 356.11 232.681 357.203 232.681 358.551C232.681 359.9 233.771 360.993 235.116 360.993Z" fill="#000001"/>
<path d="M165.969 360.993C167.314 360.993 168.404 359.9 168.404 358.551C168.404 357.203 167.314 356.11 165.969 356.11C164.624 356.11 163.534 357.203 163.534 358.551C163.534 359.9 164.624 360.993 165.969 360.993Z" fill="#000001"/>
<path d="M221.969 380.697H139.205C139.007 380.697 138.845 380.86 138.845 381.058C138.845 381.257 139.007 381.419 139.205 381.419H221.969C222.167 381.419 222.329 381.257 222.329 381.058C222.329 380.86 222.167 380.697 221.969 380.697Z" fill="#0C0A0A"/>
<path d="M275.857 380.697H234.529C234.331 380.697 234.169 380.86 234.169 381.058C234.169 381.257 234.331 381.419 234.529 381.419H275.857C276.055 381.419 276.217 381.257 276.217 381.058C276.217 380.86 276.055 380.697 275.857 380.697Z" fill="#0C0A0A"/>
<path d="M380.705 0.409641H189.191C179.104 0.409641 170.926 8.60785 170.926 18.7209V181.871C170.926 191.984 179.104 200.182 189.191 200.182H380.705C390.793 200.182 398.97 191.984 398.97 181.871V18.7209C398.97 8.60785 390.793 0.409641 380.705 0.409641Z" fill="white" stroke="#0C0A0A" stroke-width="4.53" stroke-linecap="round" stroke-linejoin="round"/>
<path d="M226.802 179.709V179.348H215.186V179.709C215.186 179.907 215.026 180.07 214.826 180.07H227.162C226.964 180.07 226.802 179.907 226.802 179.709Z" fill="#C7DEFD"/>
<path d="M276.147 179.709V179.348H264.532V179.709C264.532 179.907 264.371 180.07 264.172 180.07H276.507C276.309 180.07 276.147 179.907 276.147 179.709Z" fill="#C7DEFD"/>
<path d="M239.139 179.709V179.348H227.524V179.709C227.524 179.907 227.363 180.07 227.164 180.07H239.499C239.301 180.07 239.139 179.907 239.139 179.709Z" fill="#C7DEFD"/>
<path d="M300.82 179.709V179.348H289.204V179.709C289.204 179.907 289.044 180.07 288.844 180.07H301.18C300.982 180.07 300.82 179.907 300.82 179.709Z" fill="#C7DEFD"/>
<path d="M313.155 179.709V179.348H301.54V179.709C301.54 179.907 301.379 180.07 301.18 180.07H313.515C313.317 180.07 313.155 179.907 313.155 179.709Z" fill="#C7DEFD"/>
<path d="M263.81 179.709V179.348H252.194V179.709C252.194 179.907 252.034 180.07 251.834 180.07H264.17C263.972 180.07 263.81 179.907 263.81 179.709Z" fill="#C7DEFD"/>
<path d="M251.474 179.709V179.348H239.859V179.709C239.859 179.907 239.699 180.07 239.499 180.07H251.834C251.636 180.07 251.474 179.907 251.474 179.709Z" fill="#C7DEFD"/>
<path d="M288.482 179.709V179.348H276.867V179.709C276.867 179.907 276.707 180.07 276.507 180.07H288.842C288.644 180.07 288.482 179.907 288.482 179.709Z" fill="#C7DEFD"/>
<path d="M379.741 179.348H363.22V179.709C363.22 179.907 363.06 180.07 362.86 180.07H379.741C379.939 180.07 380.101 179.907 380.101 179.709C380.101 179.51 379.939 179.348 379.741 179.348Z" fill="#C7DEFD"/>
<path d="M325.492 179.709V179.348H313.877V179.709C313.877 179.907 313.717 180.07 313.517 180.07H325.852C325.654 180.07 325.492 179.907 325.492 179.709Z" fill="#C7DEFD"/>
<path d="M362.5 179.709V179.348H350.885V179.709C350.885 179.907 350.725 180.07 350.525 180.07H362.86C362.662 180.07 362.5 179.907 362.5 179.709Z" fill="#C7DEFD"/>
<path d="M337.828 179.709V179.348H326.212V179.709C326.212 179.907 326.052 180.07 325.852 180.07H338.188C337.99 180.07 337.828 179.907 337.828 179.709Z" fill="#C7DEFD"/>
<path d="M350.163 179.709V179.348H338.548V179.709C338.548 179.907 338.387 180.07 338.188 180.07H350.523C350.325 180.07 350.163 179.907 350.163 179.709Z" fill="#C7DEFD"/>
<path d="M190.154 87.8909H190.514V75.432H190.154C189.956 75.432 189.794 75.2696 189.794 75.0711V88.2519C189.794 88.0534 189.956 87.8909 190.154 87.8909Z" fill="#C7DEFD"/>
<path d="M214.466 179.709V179.348H202.851V179.709C202.851 179.907 202.691 180.07 202.491 180.07H214.826C214.628 180.07 214.466 179.907 214.466 179.709Z" fill="#C7DEFD"/>
<path d="M190.154 101.074H190.514V88.6146H190.154C189.956 88.6146 189.794 88.4522 189.794 88.2537V101.434C189.794 101.236 189.956 101.074 190.154 101.074Z" fill="#C7DEFD"/>
<path d="M190.154 74.7102H190.514V62.2513H190.154C189.956 62.2513 189.794 62.0889 189.794 61.8904V75.0711C189.794 74.8726 189.956 74.7102 190.154 74.7102Z" fill="#C7DEFD"/>
<path d="M190.154 35.1661H190.514V20.881C190.514 20.6824 190.352 20.52 190.154 20.52C189.956 20.52 189.794 20.6824 189.794 20.881V35.527C189.794 35.3285 189.956 35.1661 190.154 35.1661Z" fill="#C7DEFD"/>
<path d="M190.154 48.3487H190.514V35.8898H190.154C189.956 35.8898 189.794 35.7274 189.794 35.5288V48.7096C189.794 48.5111 189.956 48.3487 190.154 48.3487Z" fill="#C7DEFD"/>
<path d="M190.154 61.5294H190.514V49.0705H190.154C189.956 49.0705 189.794 48.9081 189.794 48.7096V61.8904C189.794 61.6918 189.956 61.5294 190.154 61.5294Z" fill="#C7DEFD"/>
<path d="M190.154 114.254H190.514V101.795H190.154C189.956 101.795 189.794 101.633 189.794 101.434V114.615C189.794 114.417 189.956 114.254 190.154 114.254Z" fill="#C7DEFD"/>
<path d="M190.154 127.435H190.514V114.976H190.154C189.956 114.976 189.794 114.814 189.794 114.615V127.796C189.794 127.597 189.956 127.435 190.154 127.435Z" fill="#C7DEFD"/>
<path d="M190.154 166.979H190.514V154.52H190.154C189.956 154.52 189.794 154.358 189.794 154.159V167.34C189.794 167.141 189.956 166.979 190.154 166.979Z" fill="#C7DEFD"/>
<path d="M202.129 179.709V179.348H190.514V167.703H190.154C189.956 167.703 189.794 167.54 189.794 167.342V179.709C189.794 179.804 189.832 179.896 189.9 179.963C189.967 180.03 190.06 180.07 190.154 180.07H202.489C202.291 180.07 202.129 179.907 202.129 179.709Z" fill="#C7DEFD"/>
<path d="M190.154 140.618H190.514V128.159H190.154C189.956 128.159 189.794 127.996 189.794 127.798V140.978C189.794 140.78 189.956 140.618 190.154 140.618Z" fill="#C7DEFD"/>
<path d="M190.154 153.798H190.514V141.339H190.154C189.956 141.339 189.794 141.177 189.794 140.978V154.159C189.794 153.961 189.956 153.798 190.154 153.798Z" fill="#C7DEFD"/>
<path d="M202.849 20.881C202.849 20.6825 202.687 20.52 202.489 20.52C202.291 20.52 202.129 20.6825 202.129 20.881V35.1661H202.849V20.881Z" fill="#C7DEFD"/>
<path d="M202.849 88.6128H202.129V101.072H202.849V88.6128Z" fill="#C7DEFD"/>
<path d="M202.849 141.339H202.129V153.798H202.849V141.339Z" fill="#C7DEFD"/>
<path d="M202.849 128.157H202.129V140.616H202.849V128.157Z" fill="#C7DEFD"/>
<path d="M202.849 62.2513H202.129V74.7102H202.849V62.2513Z" fill="#C7DEFD"/>
<path d="M202.849 101.795H202.129V114.254H202.849V101.795Z" fill="#C7DEFD"/>
<path d="M202.849 114.976H202.129V127.435H202.849V114.976Z" fill="#C7DEFD"/>
<path d="M202.849 49.0705H202.129V61.5294H202.849V49.0705Z" fill="#C7DEFD"/>
<path d="M202.849 154.52H202.129V166.979H202.849V154.52Z" fill="#C7DEFD"/>
<path d="M202.849 75.432H202.129V87.8909H202.849V75.432Z" fill="#C7DEFD"/>
<path d="M202.849 35.888H202.129V48.3469H202.849V35.888Z" fill="#C7DEFD"/>
<path d="M202.849 179.709V167.703H202.129V179.709C202.129 179.907 202.289 180.07 202.489 180.07C202.687 180.07 202.849 179.907 202.849 179.709Z" fill="#C7DEFD"/>
<path d="M215.186 35.888H214.466V48.3469H215.186V35.888Z" fill="#C7DEFD"/>
<path d="M215.186 75.432H214.466V87.8909H215.186V75.432Z" fill="#C7DEFD"/>
<path d="M215.186 154.52H214.466V166.979H215.186V154.52Z" fill="#C7DEFD"/>
<path d="M215.186 88.6128H214.466V101.072H215.186V88.6128Z" fill="#C7DEFD"/>
<path d="M215.186 49.0705H214.466V61.5294H215.186V49.0705Z" fill="#C7DEFD"/>
<path d="M215.186 128.157H214.466V140.616H215.186V128.157Z" fill="#C7DEFD"/>
<path d="M215.186 62.2513H214.466V74.7102H215.186V62.2513Z" fill="#C7DEFD"/>
<path d="M215.186 101.795H214.466V114.254H215.186V101.795Z" fill="#C7DEFD"/>
<path d="M215.186 114.976H214.466V127.435H215.186V114.976Z" fill="#C7DEFD"/>
<path d="M215.186 141.339H214.466V153.798H215.186V141.339Z" fill="#C7DEFD"/>
<path d="M215.186 20.881C215.186 20.6825 215.024 20.52 214.826 20.52C214.628 20.52 214.466 20.6825 214.466 20.881V35.1661H215.186V20.881Z" fill="#C7DEFD"/>
<path d="M215.186 179.709V167.703H214.466V179.709C214.466 179.907 214.627 180.07 214.826 180.07C215.024 180.07 215.186 179.907 215.186 179.709Z" fill="#C7DEFD"/>
<path d="M227.522 35.888H226.802V48.3469H227.522V35.888Z" fill="#C7DEFD"/>
<path d="M227.522 20.881C227.522 20.6825 227.36 20.52 227.162 20.52C226.964 20.52 226.802 20.6825 226.802 20.881V35.1661H227.522V20.881Z" fill="#C7DEFD"/>
<path d="M227.522 101.795H226.802V114.254H227.522V101.795Z" fill="#C7DEFD"/>
<path d="M227.522 49.0705H226.802V61.5294H227.522V49.0705Z" fill="#C7DEFD"/>
<path d="M227.522 141.339H226.802V153.798H227.522V141.339Z" fill="#C7DEFD"/>
<path d="M227.522 75.432H226.802V87.8909H227.522V75.432Z" fill="#C7DEFD"/>
<path d="M227.522 114.976H226.802V127.435H227.522V114.976Z" fill="#C7DEFD"/>
<path d="M227.522 62.2513H226.802V74.7102H227.522V62.2513Z" fill="#C7DEFD"/>
<path d="M227.522 88.6128H226.802V101.072H227.522V88.6128Z" fill="#C7DEFD"/>
<path d="M227.522 154.52H226.802V166.979H227.522V154.52Z" fill="#C7DEFD"/>
<path d="M227.522 128.157H226.802V140.616H227.522V128.157Z" fill="#C7DEFD"/>
<path d="M227.522 179.709V167.703H226.802V179.709C226.802 179.907 226.962 180.07 227.162 180.07C227.36 180.07 227.522 179.907 227.522 179.709Z" fill="#C7DEFD"/>
<path d="M239.859 128.157H239.139V140.616H239.859V128.157Z" fill="#C7DEFD"/>
<path d="M239.859 49.0705H239.139V61.5294H239.859V49.0705Z" fill="#C7DEFD"/>
<path d="M239.859 62.2513H239.139V74.7102H239.859V62.2513Z" fill="#C7DEFD"/>
<path d="M239.859 75.432H239.139V87.8909H239.859V75.432Z" fill="#C7DEFD"/>
<path d="M239.859 154.52H239.139V166.979H239.859V154.52Z" fill="#C7DEFD"/>
<path d="M239.859 101.795H239.139V114.254H239.859V101.795Z" fill="#C7DEFD"/>
<path d="M239.859 20.881C239.859 20.6825 239.697 20.52 239.499 20.52C239.301 20.52 239.139 20.6825 239.139 20.881V35.1661H239.859V20.881Z" fill="#C7DEFD"/>
<path d="M239.859 88.6128H239.139V101.072H239.859V88.6128Z" fill="#C7DEFD"/>
<path d="M239.859 114.976H239.139V127.435H239.859V114.976Z" fill="#C7DEFD"/>
<path d="M239.859 35.888H239.139V48.3469H239.859V35.888Z" fill="#C7DEFD"/>
<path d="M239.859 141.339H239.139V153.798H239.859V141.339Z" fill="#C7DEFD"/>
<path d="M239.859 179.709V167.703H239.139V179.709C239.139 179.907 239.299 180.07 239.499 180.07C239.697 180.07 239.859 179.907 239.859 179.709Z" fill="#C7DEFD"/>
<path d="M252.194 49.0705H251.474V61.5294H252.194V49.0705Z" fill="#C7DEFD"/>
<path d="M252.194 35.888H251.474V48.3469H252.194V35.888Z" fill="#C7DEFD"/>
<path d="M252.194 62.2513H251.474V74.7102H252.194V62.2513Z" fill="#C7DEFD"/>
<path d="M252.194 114.976H251.474V127.435H252.194V114.976Z" fill="#C7DEFD"/>
<path d="M252.194 141.339H251.474V153.798H252.194V141.339Z" fill="#C7DEFD"/>
<path d="M252.194 88.6128H251.474V101.072H252.194V88.6128Z" fill="#C7DEFD"/>
<path d="M252.194 154.52H251.474V166.979H252.194V154.52Z" fill="#C7DEFD"/>
<path d="M252.194 128.157H251.474V140.616H252.194V128.157Z" fill="#C7DEFD"/>
<path d="M252.194 101.795H251.474V114.254H252.194V101.795Z" fill="#C7DEFD"/>
<path d="M252.194 75.432H251.474V87.8909H252.194V75.432Z" fill="#C7DEFD"/>
<path d="M252.194 20.881C252.194 20.6825 252.032 20.52 251.834 20.52C251.636 20.52 251.474 20.6825 251.474 20.881V35.1661H252.194V20.881Z" fill="#C7DEFD"/>
<path d="M252.194 179.709V167.703H251.474V179.709C251.474 179.907 251.635 180.07 251.834 180.07C252.032 180.07 252.194 179.907 252.194 179.709Z" fill="#C7DEFD"/>
<path d="M264.53 20.881C264.53 20.6825 264.368 20.52 264.17 20.52C263.972 20.52 263.81 20.6825 263.81 20.881V35.1661H264.53V20.881Z" fill="#C7DEFD"/>
<path d="M264.53 62.2513H263.81V74.7102H264.53V62.2513Z" fill="#C7DEFD"/>
<path d="M264.53 101.795H263.81V114.254H264.53V101.795Z" fill="#C7DEFD"/>
<path d="M264.53 154.52H263.81V166.979H264.53V154.52Z" fill="#C7DEFD"/>
<path d="M264.53 128.157H263.81V140.616H264.53V128.157Z" fill="#C7DEFD"/>
<path d="M264.53 141.339H263.81V153.798H264.53V141.339Z" fill="#C7DEFD"/>
<path d="M264.53 49.0705H263.81V61.5294H264.53V49.0705Z" fill="#C7DEFD"/>
<path d="M264.53 75.432H263.81V87.8909H264.53V75.432Z" fill="#C7DEFD"/>
<path d="M264.53 88.6128H263.81V101.072H264.53V88.6128Z" fill="#C7DEFD"/>
<path d="M264.53 35.888H263.81V48.3469H264.53V35.888Z" fill="#C7DEFD"/>
<path d="M264.53 114.976H263.81V127.435H264.53V114.976Z" fill="#C7DEFD"/>
<path d="M264.53 179.709V167.703H263.81V179.709C263.81 179.907 263.97 180.07 264.17 180.07C264.368 180.07 264.53 179.907 264.53 179.709Z" fill="#C7DEFD"/>
<path d="M276.867 128.157H276.147V140.616H276.867V128.157Z" fill="#C7DEFD"/>
<path d="M276.867 35.888H276.147V48.3469H276.867V35.888Z" fill="#C7DEFD"/>
<path d="M276.867 88.6128H276.147V101.072H276.867V88.6128Z" fill="#C7DEFD"/>
<path d="M276.867 114.976H276.147V127.435H276.867V114.976Z" fill="#C7DEFD"/>
<path d="M276.867 49.0705H276.147V61.5294H276.867V49.0705Z" fill="#C7DEFD"/>
<path d="M276.867 62.2513H276.147V74.7102H276.867V62.2513Z" fill="#C7DEFD"/>
<path d="M276.867 141.339H276.147V153.798H276.867V141.339Z" fill="#C7DEFD"/>
<path d="M276.867 75.432H276.147V87.8909H276.867V75.432Z" fill="#C7DEFD"/>
<path d="M276.867 154.52H276.147V166.979H276.867V154.52Z" fill="#C7DEFD"/>
<path d="M276.867 101.795H276.147V114.254H276.867V101.795Z" fill="#C7DEFD"/>
<path d="M276.867 20.881C276.867 20.6825 276.705 20.52 276.507 20.52C276.309 20.52 276.147 20.6825 276.147 20.881V35.1661H276.867V20.881Z" fill="#C7DEFD"/>
<path d="M276.867 179.709V167.703H276.147V179.709C276.147 179.907 276.307 180.07 276.507 180.07C276.705 180.07 276.867 179.907 276.867 179.709Z" fill="#C7DEFD"/>
<path d="M289.202 154.52H288.482V166.979H289.202V154.52Z" fill="#C7DEFD"/>
<path d="M289.202 20.881C289.202 20.6825 289.04 20.52 288.842 20.52C288.644 20.52 288.482 20.6825 288.482 20.881V35.1661H289.202V20.881Z" fill="#C7DEFD"/>
<path d="M289.202 88.6128H288.482V101.072H289.202V88.6128Z" fill="#C7DEFD"/>
<path d="M289.202 35.888H288.482V48.3469H289.202V35.888Z" fill="#C7DEFD"/>
<path d="M289.202 114.976H288.482V127.435H289.202V114.976Z" fill="#C7DEFD"/>
<path d="M289.202 101.795H288.482V114.254H289.202V101.795Z" fill="#C7DEFD"/>
<path d="M289.202 141.339H288.482V153.798H289.202V141.339Z" fill="#C7DEFD"/>
<path d="M289.202 49.0705H288.482V61.5294H289.202V49.0705Z" fill="#C7DEFD"/>
<path d="M289.202 128.157H288.482V140.616H289.202V128.157Z" fill="#C7DEFD"/>
<path d="M289.202 75.432H288.482V87.8909H289.202V75.432Z" fill="#C7DEFD"/>
<path d="M289.202 62.2513H288.482V74.7102H289.202V62.2513Z" fill="#C7DEFD"/>
<path d="M289.202 179.709V167.703H288.482V179.709C288.482 179.907 288.643 180.07 288.842 180.07C289.04 180.07 289.202 179.907 289.202 179.709Z" fill="#C7DEFD"/>
<path d="M301.54 35.888H300.82V48.3469H301.54V35.888Z" fill="#C7DEFD"/>
<path d="M301.54 128.157H300.82V140.616H301.54V128.157Z" fill="#C7DEFD"/>
<path d="M301.54 154.52H300.82V166.979H301.54V154.52Z" fill="#C7DEFD"/>
<path d="M301.54 114.976H300.82V127.435H301.54V114.976Z" fill="#C7DEFD"/>
<path d="M301.54 141.339H300.82V153.798H301.54V141.339Z" fill="#C7DEFD"/>
<path d="M301.54 75.432H300.82V87.8909H301.54V75.432Z" fill="#C7DEFD"/>
<path d="M301.54 62.2513H300.82V74.7102H301.54V62.2513Z" fill="#C7DEFD"/>
<path d="M301.54 101.795H300.82V114.254H301.54V101.795Z" fill="#C7DEFD"/>
<path d="M301.54 20.881C301.54 20.6825 301.378 20.52 301.18 20.52C300.982 20.52 300.82 20.6825 300.82 20.881V35.1661H301.54V20.881Z" fill="#C7DEFD"/>
<path d="M301.54 49.0705H300.82V61.5294H301.54V49.0705Z" fill="#C7DEFD"/>
<path d="M301.54 88.6128H300.82V101.072H301.54V88.6128Z" fill="#C7DEFD"/>
<path d="M301.54 179.709V167.703H300.82V179.709C300.82 179.907 300.98 180.07 301.18 180.07C301.378 180.07 301.54 179.907 301.54 179.709Z" fill="#C7DEFD"/>
<path d="M313.875 35.888H313.155V48.3469H313.875V35.888Z" fill="#C7DEFD"/>
<path d="M313.875 75.432H313.155V87.8909H313.875V75.432Z" fill="#C7DEFD"/>
<path d="M313.875 154.52H313.155V166.979H313.875V154.52Z" fill="#C7DEFD"/>
<path d="M313.875 88.6128H313.155V101.072H313.875V88.6128Z" fill="#C7DEFD"/>
<path d="M313.875 62.2513H313.155V74.7102H313.875V62.2513Z" fill="#C7DEFD"/>
<path d="M313.875 128.157H313.155V140.616H313.875V128.157Z" fill="#C7DEFD"/>
<path d="M313.875 20.881C313.875 20.6825 313.713 20.52 313.515 20.52C313.317 20.52 313.155 20.6825 313.155 20.881V35.1661H313.875V20.881Z" fill="#C7DEFD"/>
<path d="M313.875 114.976H313.155V127.435H313.875V114.976Z" fill="#C7DEFD"/>
<path d="M313.875 101.795H313.155V114.254H313.875V101.795Z" fill="#C7DEFD"/>
<path d="M313.875 141.339H313.155V153.798H313.875V141.339Z" fill="#C7DEFD"/>
<path d="M313.875 49.0705H313.155V61.5294H313.875V49.0705Z" fill="#C7DEFD"/>
<path d="M313.875 179.709V167.703H313.155V179.709C313.155 179.907 313.315 180.07 313.515 180.07C313.713 180.07 313.875 179.907 313.875 179.709Z" fill="#C7DEFD"/>
<path d="M326.212 114.976H325.492V127.435H326.212V114.976Z" fill="#C7DEFD"/>
<path d="M326.212 101.795H325.492V114.254H326.212V101.795Z" fill="#C7DEFD"/>
<path d="M326.212 20.881C326.212 20.6825 326.05 20.52 325.852 20.52C325.654 20.52 325.492 20.6825 325.492 20.881V35.1661H326.212V20.881Z" fill="#C7DEFD"/>
<path d="M326.212 154.52H325.492V166.979H326.212V154.52Z" fill="#C7DEFD"/>
<path d="M326.212 35.888H325.492V48.3469H326.212V35.888Z" fill="#C7DEFD"/>
<path d="M326.212 141.339H325.492V153.798H326.212V141.339Z" fill="#C7DEFD"/>
<path d="M326.212 75.432H325.492V87.8909H326.212V75.432Z" fill="#C7DEFD"/>
<path d="M326.212 88.6128H325.492V101.072H326.212V88.6128Z" fill="#C7DEFD"/>
<path d="M326.212 49.0705H325.492V61.5294H326.212V49.0705Z" fill="#C7DEFD"/>
<path d="M326.212 128.157H325.492V140.616H326.212V128.157Z" fill="#C7DEFD"/>
<path d="M326.212 62.2513H325.492V74.7102H326.212V62.2513Z" fill="#C7DEFD"/>
<path d="M326.212 179.709V167.703H325.492V179.709C325.492 179.907 325.652 180.07 325.852 180.07C326.05 180.07 326.212 179.907 326.212 179.709Z" fill="#C7DEFD"/>
<path d="M338.548 154.52H337.828V166.979H338.548V154.52Z" fill="#C7DEFD"/>
<path d="M338.548 128.157H337.828V140.616H338.548V128.157Z" fill="#C7DEFD"/>
<path d="M338.548 141.339H337.828V153.798H338.548V141.339Z" fill="#C7DEFD"/>
<path d="M338.548 75.432H337.828V87.8909H338.548V75.432Z" fill="#C7DEFD"/>
<path d="M338.548 35.888H337.828V48.3469H338.548V35.888Z" fill="#C7DEFD"/>
<path d="M338.548 62.2513H337.828V74.7102H338.548V62.2513Z" fill="#C7DEFD"/>
<path d="M338.548 20.881C338.548 20.6825 338.386 20.52 338.188 20.52C337.99 20.52 337.828 20.6825 337.828 20.881V35.1661H338.548V20.881Z" fill="#C7DEFD"/>
<path d="M338.548 49.0705H337.828V61.5294H338.548V49.0705Z" fill="#C7DEFD"/>
<path d="M338.548 88.6128H337.828V101.072H338.548V88.6128Z" fill="#C7DEFD"/>
<path d="M338.548 114.976H337.828V127.435H338.548V114.976Z" fill="#C7DEFD"/>
<path d="M338.548 101.795H337.828V114.254H338.548V101.795Z" fill="#C7DEFD"/>
<path d="M338.548 179.709V167.703H337.828V179.709C337.828 179.907 337.988 180.07 338.188 180.07C338.386 180.07 338.548 179.907 338.548 179.709Z" fill="#C7DEFD"/>
<path d="M350.883 20.881C350.883 20.6825 350.721 20.52 350.523 20.52C350.325 20.52 350.163 20.6825 350.163 20.881V35.1661H350.883V20.881Z" fill="#C7DEFD"/>
<path d="M350.883 101.795H350.163V114.254H350.883V101.795Z" fill="#C7DEFD"/>
<path d="M350.883 75.432H350.163V87.8909H350.883V75.432Z" fill="#C7DEFD"/>
<path d="M350.883 35.888H350.163V48.3469H350.883V35.888Z" fill="#C7DEFD"/>
<path d="M350.883 154.52H350.163V166.979H350.883V154.52Z" fill="#C7DEFD"/>
<path d="M350.883 88.6128H350.163V101.072H350.883V88.6128Z" fill="#C7DEFD"/>
<path d="M350.883 114.976H350.163V127.435H350.883V114.976Z" fill="#C7DEFD"/>
<path d="M350.883 128.157H350.163V140.616H350.883V128.157Z" fill="#C7DEFD"/>
<path d="M350.883 62.2513H350.163V74.7102H350.883V62.2513Z" fill="#C7DEFD"/>
<path d="M350.883 49.0705H350.163V61.5294H350.883V49.0705Z" fill="#C7DEFD"/>
<path d="M350.883 141.339H350.163V153.798H350.883V141.339Z" fill="#C7DEFD"/>
<path d="M350.883 179.709V167.703H350.163V179.709C350.163 179.907 350.323 180.07 350.523 180.07C350.721 180.07 350.883 179.907 350.883 179.709Z" fill="#C7DEFD"/>
<path d="M363.22 101.795H362.5V114.254H363.22V101.795Z" fill="#C7DEFD"/>
<path d="M363.22 114.976H362.5V127.435H363.22V114.976Z" fill="#C7DEFD"/>
<path d="M363.22 88.6128H362.5V101.072H363.22V88.6128Z" fill="#C7DEFD"/>
<path d="M363.22 75.432H362.5V87.8909H363.22V75.432Z" fill="#C7DEFD"/>
<path d="M363.22 154.52H362.5V166.979H363.22V154.52Z" fill="#C7DEFD"/>
<path d="M363.22 20.881C363.22 20.6825 363.058 20.52 362.86 20.52C362.662 20.52 362.5 20.6825 362.5 20.881V35.1661H363.22V20.881Z" fill="#C7DEFD"/>
<path d="M363.22 141.339H362.5V153.798H363.22V141.339Z" fill="#C7DEFD"/>
<path d="M363.22 49.0705H362.5V61.5294H363.22V49.0705Z" fill="#C7DEFD"/>
<path d="M363.22 128.157H362.5V140.616H363.22V128.157Z" fill="#C7DEFD"/>
<path d="M363.22 62.2513H362.5V74.7102H363.22V62.2513Z" fill="#C7DEFD"/>
<path d="M363.22 35.888H362.5V48.3469H363.22V35.888Z" fill="#C7DEFD"/>
<path d="M363.22 179.709V167.703H362.5V179.709C362.5 179.907 362.66 180.07 362.86 180.07C363.058 180.07 363.22 179.907 363.22 179.709Z" fill="#C7DEFD"/>
<path d="M190.154 167.701H370.651C370.849 167.701 371.011 167.539 371.011 167.34C371.011 167.141 370.849 166.979 370.651 166.979H190.154C189.956 166.979 189.794 167.141 189.794 167.34C189.794 167.539 189.956 167.701 190.154 167.701Z" fill="#C7DEFD"/>
<path d="M190.154 154.52H370.651C370.849 154.52 371.011 154.358 371.011 154.159C371.011 153.961 370.849 153.798 370.651 153.798H190.154C189.956 153.798 189.794 153.961 189.794 154.159C189.794 154.358 189.956 154.52 190.154 154.52Z" fill="#C7DEFD"/>
<path d="M190.154 141.339H370.651C370.849 141.339 371.011 141.177 371.011 140.978C371.011 140.78 370.849 140.618 370.651 140.618H190.154C189.956 140.618 189.794 140.78 189.794 140.978C189.794 141.177 189.956 141.339 190.154 141.339Z" fill="#C7DEFD"/>
<path d="M190.154 128.157H370.651C370.849 128.157 371.011 127.994 371.011 127.796C371.011 127.597 370.849 127.435 370.651 127.435H190.154C189.956 127.435 189.794 127.597 189.794 127.796C189.794 127.994 189.956 128.157 190.154 128.157Z" fill="#C7DEFD"/>
<path d="M190.154 114.976H370.651C370.849 114.976 371.011 114.814 371.011 114.615C371.011 114.417 370.849 114.254 370.651 114.254H190.154C189.956 114.254 189.794 114.417 189.794 114.615C189.794 114.814 189.956 114.976 190.154 114.976Z" fill="#C7DEFD"/>
<path d="M190.154 101.795H370.651C370.849 101.795 371.011 101.633 371.011 101.434C371.011 101.236 370.849 101.074 370.651 101.074H190.154C189.956 101.074 189.794 101.236 189.794 101.434C189.794 101.633 189.956 101.795 190.154 101.795Z" fill="#C7DEFD"/>
<path d="M190.154 88.6128H370.651C370.849 88.6128 371.011 88.4504 371.011 88.2519C371.011 88.0534 370.849 87.8909 370.651 87.8909H190.154C189.956 87.8909 189.794 88.0534 189.794 88.2519C189.794 88.4504 189.956 88.6128 190.154 88.6128Z" fill="#C7DEFD"/>
<path d="M190.154 75.432H370.651C370.849 75.432 371.011 75.2696 371.011 75.0711C371.011 74.8726 370.849 74.7102 370.651 74.7102H190.154C189.956 74.7102 189.794 74.8726 189.794 75.0711C189.794 75.2696 189.956 75.432 190.154 75.432Z" fill="#C7DEFD"/>
<path d="M190.154 62.2513H370.651C370.849 62.2513 371.011 62.0889 371.011 61.8904C371.011 61.6919 370.849 61.5294 370.651 61.5294H190.154C189.956 61.5294 189.794 61.6919 189.794 61.8904C189.794 62.0889 189.956 62.2513 190.154 62.2513Z" fill="#C7DEFD"/>
<path d="M190.154 49.0705H370.651C370.849 49.0705 371.011 48.9081 371.011 48.7096C371.011 48.5111 370.849 48.3487 370.651 48.3487H190.154C189.956 48.3487 189.794 48.5111 189.794 48.7096C189.794 48.9081 189.956 49.0705 190.154 49.0705Z" fill="#C7DEFD"/>
<path d="M190.154 35.888H370.651C370.849 35.888 371.011 35.7255 371.011 35.527C371.011 35.3285 370.849 35.1661 370.651 35.1661H190.154C189.956 35.1661 189.794 35.3285 189.794 35.527C189.794 35.7255 189.956 35.888 190.154 35.888Z" fill="#C7DEFD"/>
<path opacity="0.8" d="M187.11 115.496C187.11 115.496 205.654 99.1263 216.409 103.145C227.162 107.164 238.815 115.983 260.102 99.4548C281.389 82.9265 284.947 84.0508 284.947 84.0508C284.947 84.0508 295.663 79.6692 304.589 86.5989C313.515 93.5303 334.13 90.9569 334.13 90.9569C334.13 90.9569 340.367 95.3926 355.509 82.1108L370.651 68.829L371.486 183.013L187.11 183.184V115.492V115.496Z" fill="#FED964" stroke="#0C0A0A" stroke-width="5" stroke-linecap="round" stroke-linejoin="round"/>
<path d="M352.12 50.7199C351.882 50.6441 351.63 50.7759 351.554 51.0141L342.632 79.3011L330.496 80.9703C330.464 80.9739 330.437 80.9811 330.406 80.992L307.762 89.0477C307.649 89.0874 307.555 89.174 307.505 89.2823L299.538 106.466L283.37 114.207C283.268 114.256 283.189 114.341 283.147 114.446L276.192 131.761L253.341 133.448C253.201 133.459 253.071 133.535 252.995 133.654L239.251 155.17H214.825C214.735 155.17 214.646 155.197 214.571 155.247L189.898 172.09C189.693 172.23 189.639 172.51 189.779 172.716C189.92 172.922 190.199 172.976 190.404 172.835L214.961 156.07H239.495C239.648 156.07 239.792 155.993 239.875 155.863L253.633 134.329L276.538 132.636C276.709 132.623 276.858 132.515 276.923 132.354L283.918 114.942L300.073 107.206C300.166 107.16 300.244 107.083 300.287 106.989L308.241 89.8291L330.664 81.8528L343.035 80.151C343.208 80.1276 343.35 80.0067 343.402 79.8406L352.411 51.2811C352.487 51.0429 352.355 50.7903 352.118 50.7145L352.12 50.7199Z" fill="#0C0A0A"/>
<path d="M354.56 45.483L355.034 49.0813L355.509 52.6779L352.165 51.292L348.82 49.9042L351.689 47.6936L354.56 45.483Z" fill="#000001"/>
<path d="M317.237 7.53779H252.657C251.311 7.53779 250.22 8.63175 250.22 9.98121V11.2787C250.22 12.6282 251.311 13.7221 252.657 13.7221H317.237C318.583 13.7221 319.675 12.6282 319.675 11.2787V9.98121C319.675 8.63175 318.583 7.53779 317.237 7.53779Z" fill="#BED9FD"/>
<path d="M206.631 11.2101H174.424C166.388 11.2101 159.874 17.741 159.874 25.7967V58.0863C159.874 66.142 166.388 72.6728 174.424 72.6728H200.903C203.582 75.58 207.927 79.9417 212.357 82.8724C214.457 84.2619 217.127 82.2552 216.409 79.837C215.375 76.356 214.771 73.0698 214.414 70.4098C218.48 67.8238 221.182 63.2727 221.182 58.0881V25.7967C221.182 17.741 214.668 11.2101 206.633 11.2101H206.631Z" fill="white" stroke="#0C0A0A" stroke-width="4.53" stroke-linecap="round" stroke-linejoin="round"/>
<path d="M180.85 30.8098V50.6676C180.85 54.2244 184.765 56.3809 187.758 54.4735L203.344 44.5446C206.125 42.7725 206.125 38.7049 203.344 36.9328L187.758 27.0039C184.765 25.0965 180.85 27.253 180.85 30.8098Z" fill="#000001"/>
<path d="M388.883 173.2H385.529C384.573 173.2 383.798 173.977 383.798 174.936V176.507C383.798 177.466 384.573 178.243 385.529 178.243H388.883C389.839 178.243 390.614 177.466 390.614 176.507V174.936C390.614 173.977 389.839 173.2 388.883 173.2Z" fill="#FD4056"/>
<path d="M388.883 160.993H385.529C384.573 160.993 383.798 161.77 383.798 162.729V164.301C383.798 165.26 384.573 166.037 385.529 166.037H388.883C389.839 166.037 390.614 165.26 390.614 164.301V162.729C390.614 161.77 389.839 160.993 388.883 160.993Z" fill="#FED964"/>
<path d="M388.883 148.789H385.529C384.573 148.789 383.798 149.566 383.798 150.525V152.097C383.798 153.055 384.573 153.833 385.529 153.833H388.883C389.839 153.833 390.614 153.055 390.614 152.097V150.525C390.614 149.566 389.839 148.789 388.883 148.789Z" fill="#25A9E1"/>
<path d="M358.396 9.8982H335.349C334.676 9.8982 334.13 10.4452 334.13 11.1199V11.7678C334.13 12.4425 334.676 12.9895 335.349 12.9895H358.396C359.069 12.9895 359.615 12.4425 359.615 11.7678V11.1199C359.615 10.4452 359.069 9.8982 358.396 9.8982Z" fill="#25A9E1"/>
<path d="M120.074 432.924L122.636 425.697L102.524 422.208C102.524 422.208 101.306 427.236 99.99 432.542C104.654 433.262 113.36 434.247 120.074 432.924Z" fill="white" stroke="#0C0A0A" stroke-width="4.53" stroke-linecap="round" stroke-linejoin="round"/>
<path d="M96.6942 444.984H144.887C144.812 444.428 144.682 443.855 144.477 443.288C143.356 440.197 120.011 433.106 120.011 433.106L120.076 432.926C113.362 434.249 104.656 433.263 99.9918 432.543C98.5986 438.161 97.0974 444.089 96.822 444.694C96.777 444.793 96.7356 444.89 96.6942 444.986V444.984Z" fill="#002F6E" stroke="#0C0A0A" stroke-width="5" stroke-linecap="round" stroke-linejoin="round"/>
<path d="M96.6942 444.984C95.3694 448.155 96.822 449.611 96.822 449.611H144.477C144.477 449.611 145.224 447.457 144.887 444.984H96.6942Z" fill="#000001"/>
<path d="M87.5898 239.531C87.5898 239.531 87.5557 262.242 99.4321 289.452C104.845 301.855 106.078 327.964 117.43 339.345C101.416 373.878 98.4619 423.991 98.4619 423.991L125.793 428.629C125.793 428.629 160.763 354.188 154.877 317.511C148.991 280.835 130.9 230.257 130.9 230.257L87.5898 239.531Z" fill="#000001"/>
<path d="M45.1494 433.592L46.521 428.155L28.377 421.008C28.377 421.008 25.6932 426.543 23.004 432.668C27.513 433.976 37.2204 436.162 45.1494 433.592Z" fill="white" stroke="#0C0A0A" stroke-width="4.53" stroke-linecap="round" stroke-linejoin="round"/>
<path d="M67.9824 441.225C64.6992 439.325 45.1512 433.594 45.1512 433.594C37.2222 436.163 27.5148 433.978 23.0058 432.67C22.6116 433.567 22.2174 434.478 21.8322 435.384C20.682 438.091 19.278 442.963 18.3204 446.502C30.1698 448.734 42.21 447.697 54.4374 446.657C59.5566 446.291 64.8216 445.926 69.9984 446.386C69.9732 444.326 69.543 442.128 67.9842 441.225H67.9824Z" fill="#002F6E" stroke="#0C0A0A" stroke-width="5" stroke-linecap="round" stroke-linejoin="round"/>
<path d="M54.4355 446.657C42.2081 447.697 30.1697 448.734 18.3185 446.502C17.6525 448.962 17.2043 450.779 17.2043 450.779H69.5519C69.5519 450.779 70.0235 448.667 69.9965 446.386C64.8197 445.926 59.5547 446.291 54.4355 446.657Z" fill="#000001"/>
<path d="M74.8169 237.156C74.8169 237.156 66.9851 250.913 66.9851 278.316C66.9851 305.718 50.5313 349.299 50.5313 349.299C50.5313 349.299 21.5729 415.324 24.5159 424.175C55.2113 434.714 55.9565 427.969 55.9565 427.969C55.9565 427.969 91.7945 351.263 98.9423 332.284C106.09 313.305 113.659 285.059 113.659 285.059V237.423L74.8169 237.156Z" fill="#000001"/>
<path d="M184.822 99.8698L206.186 75.0513C206.186 75.0513 210.499 70.713 207.976 76.8522C205.452 82.9915 203.009 85.0253 203.009 85.0253C203.009 85.0253 205.339 86.5754 205.511 88.8257C208.337 90.8306 207.131 91.917 207.041 92.8897C210.166 96.0676 207.862 96.4664 207.178 97.5419C205.789 99.7291 205.731 103.501 200.506 103.015C195.28 102.53 190.001 107.325 190.001 107.325L184.82 99.8717L184.822 99.8698Z" fill="#FF8DA0"/>
<path d="M124.164 164.164C124.355 164.057 124.637 163.9 125.003 163.697C125.73 163.29 126.783 162.702 128.084 161.973C130.685 160.515 134.276 158.492 138.238 156.233C146.16 151.714 155.561 146.25 161.462 142.478C165.049 140.186 169.479 136.261 173.869 131.813C178.261 127.365 182.621 122.391 186.106 117.992C188.428 115.059 190.363 112.381 191.653 110.297C192.391 109.106 192.917 108.106 193.183 107.388C193.325 107.007 193.388 106.706 193.387 106.538C193.39 105.655 193.027 104.56 192.443 103.432C191.864 102.304 191.075 101.142 190.273 100.088C188.991 98.4063 187.673 97.006 187.097 96.4122C187.04 96.4664 186.977 96.5259 186.903 96.5927C186.57 96.9031 186.086 97.3578 185.477 97.9299C184.261 99.0722 182.549 100.684 180.569 102.56C176.611 106.314 171.58 111.125 167.303 115.357C164.452 118.177 161.932 120.744 160.294 122.557C159.408 123.535 157.988 124.528 156.166 125.56C154.345 126.59 152.122 127.652 149.645 128.716C144.691 130.846 138.724 132.991 132.962 134.91C122.128 138.515 112.032 141.311 110.864 141.632L123.865 164.33C123.865 164.33 123.869 164.326 123.871 164.326C123.871 164.326 123.971 164.27 124.162 164.164H124.164Z" fill="#3AC08F"/>
<path d="M193.975 104.749C193.635 103.683 193.054 102.582 192.377 101.517C191.362 99.9222 190.127 98.4135 189.144 97.2983C188.161 96.1831 187.43 95.4648 187.425 95.4594C187.254 95.2898 186.979 95.2862 186.804 95.4504C186.804 95.4504 181.665 100.243 175.7 105.95C172.717 108.803 169.528 111.885 166.671 114.713C163.813 117.54 161.289 120.11 159.626 121.951C158.863 122.801 157.502 123.77 155.723 124.773C152.609 126.535 148.216 128.426 143.39 130.261C136.148 133.015 127.926 135.648 121.518 137.593C118.314 138.566 115.562 139.365 113.612 139.921C112.637 140.199 111.863 140.417 111.332 140.565C111.067 140.639 110.862 140.695 110.723 140.733C110.585 140.771 110.515 140.791 110.515 140.791C110.275 140.856 110.133 141.105 110.198 141.345C110.263 141.585 110.511 141.727 110.75 141.662C110.75 141.662 110.79 141.652 110.864 141.632C112.03 141.311 122.126 138.515 132.962 134.91C138.722 132.991 144.691 130.846 149.645 128.716C152.122 127.652 154.345 126.59 156.166 125.56C157.988 124.528 159.406 123.535 160.294 122.557C161.932 120.744 164.452 118.177 167.303 115.357C171.581 111.125 176.611 106.312 180.569 102.56C182.549 100.684 184.261 99.0722 185.477 97.9299C186.086 97.3578 186.57 96.9049 186.903 96.5927C186.975 96.5241 187.04 96.4664 187.097 96.4122C187.673 97.0059 188.991 98.4081 190.273 100.088C191.075 101.14 191.864 102.302 192.443 103.432C193.025 104.56 193.388 105.655 193.387 106.538C193.388 106.706 193.325 107.007 193.183 107.388C192.919 108.104 192.391 109.106 191.653 110.297C190.363 112.383 188.428 115.061 186.106 117.992C182.621 122.389 178.261 127.365 173.869 131.813C169.479 136.261 165.049 140.186 161.462 142.478C155.561 146.25 146.16 151.714 138.238 156.233C134.276 158.492 130.685 160.515 128.084 161.973C126.783 162.702 125.73 163.29 125.003 163.697C124.639 163.899 124.357 164.057 124.164 164.164C123.973 164.27 123.872 164.326 123.872 164.326C123.871 164.326 123.869 164.33 123.867 164.33C123.655 164.453 123.577 164.723 123.698 164.94C123.818 165.158 124.092 165.238 124.31 165.117C124.31 165.117 130.757 161.54 138.685 157.018C146.612 152.495 156.017 147.029 161.948 143.24C164.948 141.321 168.449 138.349 172.03 134.901C177.399 129.727 182.938 123.483 187.144 118.132C189.247 115.456 191.016 113.005 192.267 111.017C192.893 110.022 193.388 109.142 193.734 108.4C193.907 108.028 194.042 107.691 194.137 107.382C194.231 107.074 194.287 106.799 194.288 106.536C194.288 105.957 194.171 105.358 193.979 104.749H193.975Z" fill="#0C0A0A"/>
<path d="M101.381 139.607C101.381 139.607 71.5681 149.565 71.6383 198.554C68.9923 238.472 73.0441 240.074 73.0441 240.074C73.0441 240.074 94.3057 248.722 113.659 248.036C121.154 247.771 139.757 249.305 139.757 243.627C139.757 222.162 142.772 129.842 101.381 139.607Z" fill="#3AC08F" stroke="#0C0A0A" stroke-width="2" stroke-linecap="round" stroke-linejoin="round"/>
<path d="M148.525 173.492L168.12 162.459C168.12 162.459 181.843 153.797 183.254 154.159C184.959 154.598 174.407 164.202 174.407 166.003C174.407 169.294 178.393 169.294 175.525 174.558C173.777 177.769 168.53 182.971 163.903 181.631C159.277 180.29 154.521 182.966 154.521 182.966C154.521 182.966 148.522 178.278 148.522 173.492H148.525Z" fill="#FF8DA0"/>
<path d="M80.9281 172.402C80.9281 172.424 80.9281 172.458 80.9281 172.501C80.9281 173.268 80.9605 177.289 81.5851 182.495C82.2097 187.699 83.4301 194.086 85.7863 199.566C87.3559 203.221 89.4277 206.467 92.1367 208.707C93.6847 209.988 95.4379 210.944 97.4395 211.475C99.8767 212.121 102.37 212.415 104.89 212.415C110.956 212.415 117.184 210.706 123.122 208.115C129.06 205.523 134.708 202.053 139.619 198.554C148.779 192.025 155.371 185.395 156.542 184.191L151.958 170.671L110.792 186.133C110.561 186.22 110.306 186.106 110.216 185.877C107.586 179.216 107.163 171.938 107.163 167.876C107.163 166.32 107.226 165.241 107.253 164.848L80.9119 172.243C80.9227 172.283 80.9317 172.324 80.9299 172.368C80.9299 172.368 80.9299 172.378 80.9299 172.4L80.9281 172.402Z" fill="#3AC08F"/>
<path d="M157.482 184.164L152.66 169.942C152.62 169.827 152.537 169.733 152.426 169.681C152.314 169.628 152.19 169.623 152.075 169.666L110.891 185.135C108.468 178.763 108.058 171.792 108.059 167.881C108.059 166.91 108.085 166.127 108.11 165.59C108.122 165.321 108.135 165.111 108.144 164.972C108.149 164.902 108.153 164.85 108.155 164.814C108.155 164.796 108.157 164.783 108.158 164.774V164.761C108.18 164.512 107.996 164.296 107.748 164.274C107.5 164.252 107.284 164.438 107.262 164.685C107.262 164.687 107.257 164.747 107.249 164.853C107.222 165.247 107.159 166.328 107.159 167.881C107.159 171.942 107.582 179.221 110.212 185.882C110.302 186.111 110.558 186.225 110.788 186.138L151.954 170.677L156.539 184.197C155.367 185.4 148.777 192.03 139.615 198.559C134.705 202.06 129.056 205.531 123.118 208.12C117.18 210.712 110.952 212.421 104.886 212.421C102.366 212.421 99.873 212.126 97.4358 211.48C95.4342 210.95 93.681 209.993 92.133 208.712C89.4258 206.473 87.3522 203.226 85.7826 199.572C83.4264 194.091 82.206 187.703 81.5814 182.5C80.9568 177.296 80.9244 173.273 80.9244 172.507C80.9244 172.463 80.9244 172.429 80.9244 172.407C80.9244 172.386 80.9244 172.375 80.9244 172.375C80.9244 172.331 80.9172 172.29 80.9064 172.25C80.8542 172.063 80.685 171.922 80.4798 171.92C80.2314 171.918 80.028 172.119 80.0262 172.368C80.0262 172.368 80.0262 172.416 80.0262 172.508C80.0262 173.716 80.1 182.495 82.2564 191.561C83.3364 196.096 84.9348 200.705 87.3288 204.484C88.5258 206.373 89.9244 208.055 91.5606 209.41C93.1951 210.764 95.0707 211.789 97.2055 212.356C99.7237 213.023 102.296 213.326 104.886 213.326C111.222 213.326 117.662 211.52 123.764 208.826C132.916 204.783 141.309 198.738 147.424 193.701C153.536 188.665 157.369 184.637 157.379 184.628C157.495 184.505 157.534 184.33 157.48 184.171L157.482 184.164Z" fill="#0C0A0A"/>
<path d="M116.464 148.419L115.099 137.115C115.099 137.115 129.013 136.332 129.013 128.173C129.013 120.015 124.963 97.7747 111.137 99.0253C97.3116 100.276 98.595 114.173 98.595 125.755C98.595 137.337 97.713 142.213 97.713 142.213C97.713 142.213 114.719 152.281 116.462 148.419H116.464Z" fill="#FF8DA0"/>
<path d="M95.9275 126.628C95.9275 126.628 98.3611 130.376 101.576 128.516C104.791 126.655 103.984 123.369 103.984 123.369C103.984 123.369 101.281 117.789 103.201 116.678C105.122 115.566 107.393 122.083 107.393 122.083C107.393 122.083 110.047 123.284 111.244 122.083C112.441 120.881 109.634 116.936 109.634 116.936C109.634 116.936 115.693 116.849 114.496 113.161C119.032 114.877 119.032 113.332 119.032 109.902C124.765 109.902 126.733 109.044 126.135 105.784C130.759 103.107 124.412 96.959 122.456 99.7778C115.654 92.9583 115.592 95.7265 113.366 97.3759C108.959 92.9583 102.433 94.0536 103.63 98.9748C96.6132 100.379 94.1311 102.609 98.1541 106.641C93.8809 109.115 90.9037 111.529 95.5009 114.189C92.3779 117.32 93.5334 120.323 95.373 120.323C93.7476 121.953 95.9293 126.628 95.9293 126.628H95.9275Z" fill="#000001"/>
<path d="M94.0032 143.518L98.6868 136.319L115.162 149.3L114.17 156.383C114.17 156.383 94.0032 147.192 94.0032 143.518Z" fill="#3AC08F" stroke="#0C0A0A" stroke-width="2" stroke-linecap="round" stroke-linejoin="round"/>
<path d="M116.21 140.997C116.21 140.997 116.624 148.462 117.11 148.462C117.596 148.462 122.953 151.147 122.953 151.147C122.953 151.147 121.599 145.023 120.503 143.924C119.407 142.825 116.208 140.997 116.208 140.997H116.21Z" fill="#3AC08F" stroke="#0C0A0A" stroke-width="2" stroke-linecap="round" stroke-linejoin="round"/>
<path d="M510.401 231.899H389.095C382.522 231.899 377.194 237.241 377.194 243.831V290.839C377.194 297.429 382.522 302.771 389.095 302.771H510.401C516.974 302.771 522.302 297.429 522.302 290.839V243.831C522.302 237.241 516.974 231.899 510.401 231.899Z" fill="white" stroke="#0C0A0A" stroke-width="4.53" stroke-linecap="round" stroke-linejoin="round"/>
<path d="M420.836 227.114H400.286V267.336H420.836V227.114Z" fill="#3AC08F" stroke="#0C0A0A" stroke-width="3" stroke-linecap="round" stroke-linejoin="round"/>
<path d="M452.799 198.744H432.248V267.338H452.799V198.744Z" fill="#3AC08F" stroke="#0C0A0A" stroke-width="3" stroke-linecap="round" stroke-linejoin="round"/>
<path d="M488.165 172.467H467.615V267.336H488.165V172.467Z" fill="#3AC08F" stroke="#0C0A0A" stroke-width="3" stroke-linecap="round" stroke-linejoin="round"/>
<path d="M481.304 132.324C481.108 132.17 480.825 132.205 480.672 132.401L442.202 181.667L408.191 208.483C407.995 208.636 407.963 208.921 408.116 209.116C408.269 209.313 408.553 209.346 408.748 209.192L442.802 182.342C442.831 182.318 442.854 182.295 442.877 182.266L481.379 132.959C481.532 132.762 481.498 132.479 481.302 132.325L481.304 132.324Z" fill="#0C0A0A"/>
<path d="M486.607 126.796L485.609 132.679L484.612 138.56L480.029 134.754L475.448 130.947L481.027 128.871L486.607 126.796Z" fill="#000001"/>
<path d="M407.862 215.916C410.753 215.916 413.096 213.567 413.096 210.668C413.096 207.77 410.753 205.421 407.862 205.421C404.971 205.421 402.628 207.77 402.628 210.668C402.628 213.567 404.971 215.916 407.862 215.916Z" fill="#000001"/>
<path d="M442.525 188.576C445.415 188.576 447.759 186.227 447.759 183.329C447.759 180.43 445.415 178.081 442.525 178.081C439.634 178.081 437.29 180.43 437.29 183.329C437.29 186.227 439.634 188.576 442.525 188.576Z" fill="#000001"/>
<path d="M434.884 100.296H346.727C342.9 100.296 339.797 103.406 339.797 107.243V128.498C339.797 132.335 342.9 135.446 346.727 135.446H434.884C438.711 135.446 441.814 132.335 441.814 128.498V107.243C441.814 103.406 438.711 100.296 434.884 100.296Z" fill="white" stroke="#0C0A0A" stroke-width="4.53" stroke-linecap="round" stroke-linejoin="round"/>
<path d="M365.812 109.131L368.564 114.563L374.715 115.434L370.264 119.663L371.315 125.632L365.812 122.813L360.31 125.632L361.361 119.663L356.909 115.434L363.062 114.563L365.812 109.131Z" fill="#FED964" stroke="black" stroke-width="2" stroke-linecap="round" stroke-linejoin="round"/>
<path d="M392.735 109.131L395.487 114.563L401.638 115.434L397.186 119.663L398.237 125.632L392.735 122.813L387.232 125.632L388.283 119.663L383.832 115.434L389.984 114.563L392.735 109.131Z" fill="#FED964" stroke="black" stroke-width="2" stroke-linecap="round" stroke-linejoin="round"/>
<path d="M419.657 109.131L422.408 114.563L428.56 115.434L424.109 119.663L425.16 125.632L419.657 122.813L414.155 125.632L415.206 119.663L410.755 115.434L416.907 114.563L419.657 109.131Z" fill="#FED964" stroke="black" stroke-width="2" stroke-linecap="round" stroke-linejoin="round"/>
<path d="M109.634 134.264C109.634 134.264 111.15 136.155 115.101 137.115C112.75 137.387 110.421 137.609 109.634 134.264Z" fill="#000001"/>
<path d="M420.836 451.548C420.836 451.548 394.349 447.588 404.087 424.48C407.599 416.149 409.423 411.311 407.862 408.214C405.092 402.721 401.148 403.829 391.183 399.501C375.601 392.734 389.311 368.175 389.311 368.175C389.311 368.175 365.456 352.766 372.922 337.47C394.105 333.596 400.322 343.472 406.584 357.748C423.185 354.872 433.955 369.476 429.084 385.75C447.588 392.259 468.437 440.731 449.748 451.548C432.655 456.05 420.836 451.548 420.836 451.548Z" fill="#388E85" stroke="#0C0A0A" stroke-width="5" stroke-linecap="round" stroke-linejoin="round"/>
<path d="M438.269 436.423C438.172 436.145 438.073 435.862 437.972 435.573C436.792 432.182 435.332 427.981 433.413 422.725C433.305 422.79 433.197 422.855 433.087 422.92C432.934 423.008 432.776 423.091 432.619 423.174C434.119 427.285 435.335 430.744 436.358 433.677C436.759 434.826 437.128 435.891 437.476 436.885C437.585 436.826 437.693 436.766 437.8 436.705C437.96 436.613 438.113 436.517 438.268 436.425L438.269 436.423Z" fill="white"/>
<path d="M400.304 363.824C396.119 358.793 392.231 354.53 389.099 351.253C388.951 351.365 388.795 351.472 388.627 351.569C388.523 351.629 388.417 351.683 388.31 351.733C391.511 355.077 395.525 359.473 399.843 364.683C399.895 364.6 399.946 364.515 399.994 364.425C400.106 364.216 400.207 364.017 400.302 363.824H400.304Z" fill="white"/>
<path d="M419.78 391.29C417.163 386.817 414.374 382.532 411.543 378.494C411.476 378.582 411.413 378.671 411.345 378.761C411.221 378.922 411.088 379.071 410.951 379.217C413.764 383.24 416.531 387.506 419.123 391.954C419.207 391.877 419.296 391.803 419.377 391.721C419.517 391.581 419.65 391.436 419.78 391.292V391.29Z" fill="white"/>
<path d="M410.996 377.716C407.619 372.948 404.194 368.538 400.928 364.58C400.883 364.669 400.838 364.757 400.788 364.849C400.682 365.048 400.565 365.232 400.441 365.405C400.493 365.47 400.547 365.533 400.599 365.598C403.79 369.487 407.131 373.807 410.416 378.461C410.488 378.38 410.56 378.297 410.629 378.209C410.756 378.043 410.877 377.878 410.992 377.716H410.996Z" fill="white"/>
<path d="M433.096 421.855C432.043 418.98 430.855 415.8 429.505 412.276C429.068 411.135 428.612 409.999 428.137 408.871C428.067 408.946 427.999 409.024 427.927 409.096C427.775 409.248 427.608 409.385 427.428 409.513C427.855 410.538 428.269 411.567 428.665 412.601C430.036 416.183 431.24 419.408 432.306 422.318C432.418 422.259 432.529 422.201 432.637 422.138C432.796 422.046 432.945 421.952 433.096 421.856V421.855Z" fill="white"/>
<path d="M449.95 453.146C448.691 452.515 447.649 451.972 446.765 451.438C445.993 450.97 445.343 450.512 444.771 450.006C443.77 449.122 442.993 448.094 442.204 446.58C441.155 444.564 440.107 441.694 438.572 437.297C438.466 437.36 438.359 437.423 438.25 437.486C438.093 437.576 437.936 437.663 437.776 437.748C438.467 439.724 439.061 441.393 439.603 442.821C440.264 444.56 440.852 445.943 441.457 447.09C442.363 448.812 443.32 450.01 444.587 451.028C445.855 452.046 447.412 452.881 449.546 453.951C449.768 454.063 450.04 453.973 450.149 453.749C450.261 453.527 450.171 453.255 449.948 453.145L449.95 453.146Z" fill="white"/>
<path d="M427.743 407.949C425.549 402.842 423.004 397.872 420.253 393.108C420.174 393.191 420.095 393.275 420.012 393.357C419.875 393.494 419.733 393.624 419.585 393.75C422.339 398.538 424.885 403.531 427.066 408.656C427.147 408.591 427.223 408.526 427.289 408.457C427.442 408.304 427.592 408.133 427.741 407.949H427.743Z" fill="white"/>
<path d="M388.471 350.597C384.334 346.302 381.672 343.874 381.667 343.869C381.483 343.701 381.199 343.716 381.031 343.9C380.864 344.084 380.878 344.369 381.062 344.537C381.062 344.537 381.094 344.566 381.157 344.625C381.656 345.085 384.084 347.35 387.65 351.044C387.833 350.97 388.012 350.887 388.181 350.79C388.283 350.73 388.379 350.667 388.472 350.6L388.471 350.597Z" fill="white"/>
<path d="M389.101 351.253C389.45 350.988 389.749 350.683 389.995 350.353C390.524 349.647 390.836 348.839 391.019 348.048C391.201 347.258 391.255 346.484 391.255 345.834C391.255 344.843 391.131 344.143 391.127 344.123C391.084 343.878 390.85 343.716 390.605 343.759C390.361 343.802 390.199 344.037 390.242 344.282C390.245 344.306 390.355 344.948 390.355 345.834C390.355 346.634 390.265 347.63 389.943 348.539C389.783 348.994 389.565 349.427 389.277 349.81C389.054 350.106 388.789 350.371 388.471 350.597C388.377 350.663 388.282 350.726 388.179 350.786C388.01 350.883 387.832 350.966 387.648 351.04C386.921 351.336 386.096 351.457 385.256 351.457C383.987 351.457 382.7 351.188 381.737 350.916C381.256 350.781 380.855 350.643 380.576 350.542C380.437 350.492 380.327 350.45 380.255 350.42C380.219 350.405 380.191 350.394 380.173 350.387L380.153 350.378H380.147C379.919 350.279 379.654 350.385 379.557 350.615C379.46 350.844 379.566 351.109 379.795 351.206C379.807 351.212 380.479 351.497 381.492 351.784C382.505 352.069 383.861 352.358 385.254 352.36C386.291 352.36 387.356 352.197 388.31 351.732C388.417 351.679 388.523 351.627 388.627 351.567C388.795 351.47 388.951 351.365 389.099 351.252L389.101 351.253Z" fill="white"/>
<path d="M400.93 364.582C401.985 362.539 402.278 361.258 402.28 360.424C402.28 359.997 402.199 359.688 402.098 359.473C401.999 359.26 401.881 359.147 401.83 359.109C401.634 358.955 401.351 358.99 401.198 359.185C401.053 359.37 401.078 359.632 401.247 359.791C401.247 359.791 401.254 359.8 401.265 359.82C401.299 359.879 401.378 360.047 401.38 360.423C401.382 360.998 401.173 362.065 400.304 363.822C400.208 364.015 400.108 364.214 399.996 364.423C399.947 364.514 399.897 364.598 399.845 364.681C399.6 365.069 399.308 365.387 398.983 365.649C398.389 366.127 397.676 366.423 396.956 366.6C396.236 366.775 395.514 366.829 394.92 366.829C394.508 366.829 394.157 366.804 393.91 366.778C393.788 366.766 393.691 366.753 393.628 366.744C393.595 366.739 393.572 366.735 393.556 366.733L393.539 366.73H393.536C393.291 366.686 393.057 366.85 393.016 367.096C392.972 367.341 393.136 367.576 393.381 367.617C393.399 367.621 394.022 367.729 394.922 367.729C395.784 367.729 396.9 367.63 397.985 367.226C398.527 367.022 399.064 366.74 399.548 366.352C399.877 366.089 400.181 365.773 400.446 365.405C400.57 365.232 400.687 365.048 400.793 364.849C400.842 364.757 400.887 364.669 400.934 364.58L400.93 364.582Z" fill="white"/>
<path d="M411.345 378.761C411.413 378.671 411.476 378.582 411.543 378.494C413.694 375.592 414.358 372.961 414.356 370.873C414.356 369.364 414.016 368.143 413.676 367.296C413.334 366.45 412.99 365.975 412.974 365.952C412.826 365.751 412.546 365.708 412.346 365.854C412.146 366.002 412.103 366.284 412.249 366.484C412.249 366.484 412.556 366.912 412.857 367.67C413.159 368.429 413.458 369.521 413.458 370.871C413.456 372.715 412.906 375.049 410.998 377.716C410.881 377.878 410.76 378.043 410.634 378.209C410.566 378.297 410.494 378.378 410.422 378.461C410.121 378.8 409.781 379.095 409.401 379.344C408.695 379.807 407.86 380.125 406.951 380.325C406.042 380.526 405.063 380.607 404.077 380.607C402.093 380.607 400.09 380.275 398.587 379.941C397.836 379.775 397.21 379.607 396.772 379.483C396.554 379.419 396.383 379.369 396.266 379.333C396.209 379.315 396.164 379.3 396.135 379.291L396.103 379.28L396.094 379.277C395.858 379.197 395.602 379.326 395.525 379.562C395.446 379.798 395.573 380.055 395.809 380.132C395.82 380.136 396.848 380.479 398.392 380.822C399.937 381.164 401.994 381.509 404.077 381.509C405.457 381.509 406.85 381.358 408.116 380.943C408.748 380.733 409.349 380.459 409.896 380.1C410.279 379.849 410.632 379.553 410.954 379.217C411.091 379.073 411.224 378.923 411.349 378.761H411.345Z" fill="white"/>
<path d="M420.253 392.108C421.603 390.675 422.444 389.081 422.946 387.533C423.479 385.894 423.637 384.305 423.637 382.985C423.637 380.995 423.277 379.616 423.272 379.591C423.209 379.349 422.962 379.207 422.723 379.27C422.483 379.333 422.339 379.58 422.402 379.82C422.406 379.836 422.739 381.136 422.739 382.985C422.739 384.232 422.588 385.728 422.093 387.253C421.646 388.623 420.925 390.016 419.782 391.29C419.652 391.434 419.519 391.577 419.378 391.72C419.297 391.801 419.209 391.877 419.125 391.952C418.084 392.891 416.729 393.524 415.215 393.921C413.579 394.351 411.77 394.508 410.035 394.506C407.945 394.506 405.963 394.282 404.505 394.057C403.776 393.945 403.18 393.833 402.766 393.748C402.559 393.706 402.399 393.67 402.289 393.647C402.235 393.634 402.194 393.625 402.167 393.62L402.136 393.613H402.127C401.886 393.553 401.643 393.701 401.584 393.943C401.526 394.185 401.674 394.428 401.917 394.486C401.936 394.49 405.729 395.406 410.035 395.406C411.824 395.406 413.701 395.248 415.442 394.791C416.986 394.385 418.428 393.741 419.587 392.746C419.733 392.62 419.877 392.49 420.014 392.353C420.097 392.27 420.176 392.187 420.255 392.104L420.253 392.108Z" fill="white"/>
<path d="M428.137 408.871C428.814 408.124 429.399 407.16 429.914 406.11C430.762 404.375 431.411 402.416 431.854 400.884C432.295 399.351 432.527 398.249 432.529 398.242C432.58 397.998 432.425 397.758 432.182 397.708C431.939 397.657 431.699 397.812 431.649 398.056L431.645 398.076C431.599 398.294 431.172 400.241 430.42 402.463C430.043 403.572 429.586 404.753 429.057 405.816C428.656 406.622 428.213 407.36 427.743 407.949C427.595 408.134 427.444 408.306 427.291 408.457C427.223 408.526 427.147 408.593 427.068 408.656C426.791 408.878 426.443 409.076 426.035 409.246C425.246 409.576 424.244 409.798 423.164 409.934C422.084 410.069 420.925 410.12 419.816 410.12C418.356 410.12 416.983 410.033 415.975 409.948C415.471 409.905 415.058 409.861 414.774 409.829C414.632 409.813 414.52 409.8 414.445 409.789C414.407 409.784 414.378 409.78 414.36 409.778C414.34 409.777 414.333 409.775 414.333 409.775C414.086 409.742 413.86 409.916 413.827 410.163C413.795 410.41 413.968 410.637 414.214 410.67C414.227 410.67 416.828 411.022 419.818 411.022C421.331 411.022 422.946 410.933 424.384 410.655C425.104 410.517 425.781 410.331 426.382 410.08C426.764 409.919 427.117 409.733 427.43 409.513C427.61 409.387 427.777 409.248 427.928 409.096C428 409.024 428.069 408.948 428.139 408.871H428.137Z" fill="white"/>
<path d="M433.413 422.725C435.1 421.691 436.394 420.436 437.378 419.128C438.952 417.04 439.747 414.824 440.152 413.128C440.557 411.431 440.572 410.253 440.572 410.228C440.575 409.979 440.375 409.775 440.127 409.771C439.879 409.768 439.675 409.968 439.672 410.217V410.221C439.672 410.311 439.621 412.319 438.714 414.784C438.26 416.017 437.593 417.361 436.615 418.644C435.726 419.808 434.578 420.92 433.096 421.857C432.945 421.952 432.796 422.046 432.637 422.138C432.529 422.201 432.418 422.259 432.306 422.319C430.978 423.03 429.464 423.513 427.882 423.818C426.166 424.148 424.372 424.273 422.653 424.273C420.16 424.273 417.825 424.011 416.119 423.751C415.265 423.621 414.569 423.49 414.086 423.392C413.845 423.344 413.658 423.302 413.532 423.275C413.469 423.261 413.42 423.25 413.388 423.243L413.352 423.233H413.341C413.1 423.172 412.857 423.322 412.798 423.564C412.74 423.806 412.888 424.049 413.131 424.109C413.152 424.112 417.541 425.175 422.653 425.175C424.415 425.175 426.263 425.049 428.051 424.704C429.658 424.396 431.217 423.908 432.619 423.176C432.778 423.093 432.934 423.01 433.087 422.921C433.197 422.858 433.307 422.793 433.413 422.726V422.725Z" fill="white"/>
<path d="M438.574 437.297C442.535 434.934 444.796 432.253 446.063 430.134C447.365 427.958 447.622 426.379 447.629 426.336C447.669 426.09 447.502 425.859 447.255 425.82C447.01 425.78 446.78 425.948 446.74 426.195C446.731 426.244 446.474 427.727 445.234 429.768C444.042 431.726 441.941 434.2 438.269 436.425C438.115 436.519 437.962 436.613 437.801 436.705C437.695 436.766 437.585 436.826 437.477 436.885C435.416 438.011 432.963 438.73 430.457 439.164C427.819 439.623 425.124 439.771 422.768 439.769C420.721 439.769 418.932 439.659 417.654 439.549C417.015 439.493 416.506 439.439 416.156 439.397C415.982 439.377 415.847 439.359 415.757 439.347C415.712 439.341 415.678 439.336 415.654 439.332C415.631 439.329 415.622 439.327 415.622 439.327C415.375 439.291 415.148 439.462 415.112 439.709C415.076 439.957 415.247 440.184 415.494 440.22C415.508 440.222 418.612 440.669 422.768 440.669C425.16 440.669 427.903 440.522 430.61 440.051C433.132 439.612 435.623 438.896 437.778 437.744C437.938 437.659 438.097 437.573 438.251 437.483C438.359 437.419 438.467 437.356 438.574 437.293V437.297Z" fill="white"/>
<path d="M449.748 451.548C449.748 451.548 432.493 431.804 448.238 416.017C448.238 416.017 440.221 401.696 449.748 387.376C459.275 373.055 470.927 379.801 470.927 379.801C470.927 379.801 461.223 361.991 480.051 354.83C497.059 364.674 491.9 375.497 485.57 381.843C492.386 388.677 497.581 413.74 476.156 417.645C479.077 431.314 470.736 455.832 449.748 451.548Z" fill="#FED964" stroke="#0C0A0A" stroke-width="5" stroke-linecap="round" stroke-linejoin="round"/>
<path d="M475.821 387.854C474.851 391.176 473.621 394.558 472.066 397.853C472.192 397.882 472.32 397.909 472.45 397.929C472.633 397.958 472.813 397.98 472.993 397.996C474.516 394.731 475.724 391.391 476.681 388.116C476.537 388.083 476.39 388.045 476.242 388C476.098 387.957 475.958 387.906 475.821 387.852V387.854Z" fill="white"/>
<path d="M478.604 374.338C478.31 376.626 477.911 379.091 477.371 381.659C477.005 383.395 476.575 385.178 476.071 386.983C476.212 387.04 476.356 387.093 476.501 387.138C476.647 387.181 476.791 387.217 476.932 387.246C477.445 385.414 477.88 383.606 478.251 381.845C478.793 379.272 479.192 376.801 479.489 374.506C479.335 374.489 479.176 374.466 479.014 374.433C478.872 374.405 478.737 374.372 478.604 374.336V374.338Z" fill="white"/>
<path d="M471.667 399.685C470.162 402.751 468.369 405.729 466.232 408.501C465.273 409.746 464.414 411.007 463.642 412.278C463.941 412.357 464.256 412.419 464.585 412.462C465.295 411.316 466.078 410.177 466.945 409.053C469.177 406.158 471.035 403.051 472.585 399.859C472.493 399.846 472.403 399.835 472.311 399.821C472.093 399.786 471.879 399.739 471.668 399.685H471.667Z" fill="white"/>
<path d="M479.601 373.612C480.19 368.707 480.299 364.696 480.299 362.364C480.299 360.957 480.26 360.163 480.258 360.155C480.245 359.906 480.033 359.715 479.786 359.728C479.538 359.74 479.347 359.953 479.36 360.201C479.36 360.201 479.36 360.211 479.36 360.235C479.367 360.399 479.398 361.148 479.398 362.364C479.398 364.654 479.29 368.605 478.714 373.434C478.861 373.477 479.018 373.517 479.185 373.549C479.327 373.578 479.466 373.598 479.599 373.611L479.601 373.612Z" fill="white"/>
<path d="M459.355 422.021C458.447 425.13 457.947 428.178 457.726 431.058C458.014 431.107 458.312 431.145 458.62 431.168C458.836 428.331 459.326 425.332 460.219 422.275C461.086 419.303 462.335 416.279 464.083 413.297C463.77 413.241 463.464 413.171 463.169 413.081C461.455 416.053 460.219 419.065 459.356 422.021H459.355Z" fill="white"/>
<path d="M457.583 434.79C457.583 444.031 460.143 450.768 460.154 450.8C460.242 451.033 460.503 451.151 460.735 451.062C460.967 450.974 461.084 450.712 460.996 450.479V450.476C460.93 450.302 458.485 443.723 458.485 434.79C458.485 433.906 458.51 432.996 458.563 432.071C458.257 432.049 457.958 432.015 457.666 431.968C457.61 432.93 457.583 433.873 457.583 434.79Z" fill="white"/>
<path d="M455.099 430.165C453.359 429.239 452.119 427.835 451.318 426.659C450.918 426.07 450.628 425.54 450.439 425.161C450.346 424.971 450.275 424.818 450.23 424.715C450.209 424.663 450.191 424.623 450.182 424.598L450.171 424.569V424.563H450.167C450.079 424.331 449.818 424.215 449.586 424.304C449.354 424.392 449.237 424.654 449.327 424.886C449.339 424.917 450.013 426.691 451.591 428.487C452.38 429.384 453.398 430.286 454.676 430.966C455.549 431.432 456.545 431.791 457.664 431.971C457.954 432.018 458.253 432.053 458.561 432.074C458.802 432.09 459.047 432.101 459.297 432.101C459.401 432.101 459.506 432.101 459.612 432.096C461.495 432.042 463.052 431.668 464.323 431.132C466.229 430.329 467.487 429.163 468.266 428.198C469.044 427.232 469.348 426.466 469.361 426.433C469.451 426.2 469.337 425.939 469.105 425.848C468.875 425.758 468.614 425.872 468.522 426.103C468.508 426.139 468.004 427.371 466.646 428.604C465.968 429.221 465.077 429.842 463.919 430.322C462.762 430.802 461.338 431.143 459.589 431.194C459.491 431.197 459.394 431.197 459.299 431.197C459.067 431.197 458.842 431.186 458.62 431.172C458.312 431.15 458.014 431.112 457.726 431.062C456.743 430.894 455.872 430.578 455.099 430.169V430.165Z" fill="white"/>
<path d="M463.394 412.207C462.832 412.032 462.337 411.742 461.893 411.354C461.113 410.677 460.494 409.699 460.019 408.6C459.304 406.954 458.914 405.054 458.71 403.572C458.608 402.831 458.55 402.194 458.519 401.744C458.503 401.519 458.494 401.34 458.489 401.219C458.487 401.158 458.485 401.113 458.483 401.082V401.048V401.037C458.478 400.788 458.273 400.589 458.024 400.595C457.776 400.6 457.578 400.806 457.583 401.055C457.583 401.075 457.637 403.607 458.33 406.37C458.678 407.75 459.185 409.19 459.947 410.41C460.328 411.02 460.775 411.574 461.3 412.034C461.826 412.493 462.434 412.855 463.127 413.07C463.14 413.074 463.153 413.077 463.165 413.081C463.46 413.171 463.766 413.241 464.08 413.297C464.69 413.404 465.331 413.453 465.988 413.453C468.569 413.453 471.429 412.743 473.659 412.043C475.888 411.341 477.481 410.641 477.491 410.637C477.718 410.538 477.823 410.271 477.724 410.044C477.625 409.816 477.358 409.712 477.131 409.811L477.115 409.818C476.937 409.896 475.335 410.581 473.186 411.247C471.037 411.913 468.335 412.552 465.989 412.55C465.502 412.55 465.03 412.521 464.584 412.464C464.254 412.42 463.939 412.359 463.64 412.28C463.558 412.258 463.473 412.234 463.392 412.209L463.394 412.207Z" fill="white"/>
<path d="M472.068 397.853C470.966 397.604 469.964 397.058 469.071 396.345C467.577 395.156 466.398 393.51 465.604 392.165C465.206 391.492 464.904 390.895 464.702 390.467C464.602 390.254 464.526 390.083 464.476 389.966C464.45 389.908 464.432 389.863 464.42 389.832L464.405 389.8L464.402 389.792C464.31 389.559 464.049 389.446 463.817 389.538C463.586 389.63 463.473 389.892 463.565 390.124C463.574 390.144 464.332 392.062 465.79 394.107C466.519 395.13 467.424 396.186 468.509 397.052C469.429 397.787 470.484 398.382 471.667 398.687C471.877 398.741 472.091 398.788 472.309 398.822C472.401 398.837 472.493 398.848 472.583 398.86C473.004 398.915 473.42 398.942 473.825 398.942C476.287 398.942 478.415 398.021 479.927 397.112C481.439 396.202 482.344 395.296 482.362 395.278C482.539 395.101 482.539 394.816 482.362 394.639C482.186 394.463 481.901 394.463 481.727 394.639C481.718 394.648 480.852 395.509 479.432 396.357C478.012 397.207 476.042 398.039 473.827 398.039C473.553 398.039 473.276 398.025 472.995 397.998C472.815 397.982 472.633 397.96 472.451 397.931C472.322 397.911 472.194 397.884 472.068 397.855V397.853Z" fill="white"/>
<path d="M476.071 386.983C475.52 386.757 475.013 386.43 474.554 386.05C473.692 385.333 473.009 384.427 472.552 383.704C472.324 383.341 472.149 383.025 472.032 382.801C471.974 382.689 471.931 382.601 471.902 382.54C471.888 382.509 471.877 382.487 471.87 382.473L471.863 382.457V382.453C471.762 382.226 471.497 382.121 471.269 382.222C471.042 382.323 470.938 382.588 471.038 382.818C471.047 382.837 471.497 383.861 472.363 385.017C472.797 385.597 473.333 386.208 473.98 386.746C474.518 387.194 475.132 387.585 475.823 387.856C475.961 387.91 476.1 387.961 476.244 388.004C476.392 388.049 476.539 388.087 476.683 388.119C477.124 388.219 477.545 388.262 477.947 388.262C479.338 388.262 480.451 387.739 481.207 387.224C481.964 386.708 482.377 386.199 482.396 386.176C482.553 385.983 482.522 385.698 482.33 385.541C482.137 385.384 481.855 385.414 481.698 385.607C481.687 385.62 481.32 386.064 480.672 386.497C480.019 386.936 479.092 387.358 477.949 387.358C477.628 387.358 477.29 387.324 476.933 387.248C476.793 387.217 476.649 387.183 476.503 387.14C476.357 387.096 476.213 387.042 476.073 386.984L476.071 386.983Z" fill="white"/>
<path d="M484.133 370.996C483.907 370.893 483.642 370.996 483.539 371.221C483.536 371.232 483.242 371.86 482.654 372.461C482.359 372.762 481.993 373.056 481.554 373.273C481.115 373.49 480.604 373.632 479.999 373.634C479.871 373.634 479.74 373.627 479.603 373.614C479.47 373.601 479.331 373.58 479.189 373.553C479.021 373.52 478.865 373.481 478.717 373.437C478.219 373.291 477.83 373.091 477.522 372.865C476.926 372.427 476.622 371.889 476.458 371.422C476.296 370.954 476.284 370.563 476.284 370.47V370.454V370.452C476.293 370.205 476.102 369.996 475.855 369.983C475.607 369.972 475.396 370.166 475.385 370.413C475.385 370.413 475.385 370.438 475.385 370.47C475.385 370.685 475.414 371.481 475.889 372.345C476.127 372.775 476.482 373.219 476.993 373.594C477.418 373.906 477.952 374.168 478.607 374.343C478.741 374.379 478.876 374.412 479.018 374.441C479.18 374.473 479.338 374.497 479.493 374.513C479.666 374.531 479.837 374.54 480.001 374.54C480.762 374.54 481.426 374.352 481.981 374.074C482.814 373.656 483.403 373.038 483.786 372.531C484.171 372.022 484.353 371.618 484.364 371.597C484.466 371.369 484.364 371.102 484.139 370.999L484.133 370.996Z" fill="white"/>
<path d="M484.922 451.169C484.922 451.169 511.704 454.911 514.787 436.522C527.989 437.934 534.373 429.145 529.936 420.14C538.918 417.212 534.805 401.046 534.805 401.046C534.805 401.046 521.248 400.885 519.856 409.699C506.129 407.774 499.095 411.57 498.445 418.296C481.781 416.885 459.398 437.952 463.826 449.604C477.994 450.734 484.918 451.167 484.918 451.167L484.922 451.169Z" fill="#388E85" stroke="#0C0A0A" stroke-width="5" stroke-linecap="round" stroke-linejoin="round"/>
<path d="M415.694 286.624H402.275C401.176 286.624 400.286 287.516 400.286 288.618V289.673C400.286 290.775 401.176 291.667 402.275 291.667H415.694C416.792 291.667 417.683 290.775 417.683 289.673V288.618C417.683 287.516 416.792 286.624 415.694 286.624Z" fill="white" stroke="#0C0A0A" stroke-width="5" stroke-linecap="round" stroke-linejoin="round"/>
<path d="M449.233 286.624H435.814C434.716 286.624 433.825 287.516 433.825 288.618V289.673C433.825 290.775 434.716 291.667 435.814 291.667H449.233C450.332 291.667 451.222 290.775 451.222 289.673V288.618C451.222 287.516 450.332 286.624 449.233 286.624Z" fill="white" stroke="#0C0A0A" stroke-width="5" stroke-linecap="round" stroke-linejoin="round"/>
<path d="M482.774 286.624H469.355C468.257 286.624 467.366 287.516 467.366 288.618V289.673C467.366 290.775 468.257 291.667 469.355 291.667H482.774C483.873 291.667 484.763 290.775 484.763 289.673V288.618C484.763 287.516 483.873 286.624 482.774 286.624Z" fill="white" stroke="#0C0A0A" stroke-width="5" stroke-linecap="round" stroke-linejoin="round"/>
<path d="M341.402 385.146C341.935 383.168 342.22 381.089 342.22 378.942C342.22 376.594 341.878 374.325 341.246 372.183L346.63 367.98L344.835 364.864L341.775 359.549L335.315 362.179C332.267 359.109 328.388 356.871 324.045 355.832L323.105 349.056H313.394L312.437 355.973C308.128 357.117 304.301 359.445 301.324 362.592L294.995 360.017L293.2 363.133L290.14 368.448L295.637 372.739C295.105 374.717 294.82 376.796 294.82 378.943C294.82 381.291 295.162 383.56 295.794 385.702L290.41 389.904L292.205 393.021L295.265 398.336L301.725 395.706C304.772 398.776 308.651 401.014 312.995 402.053L313.934 408.829H323.645L324.603 401.912C328.912 400.768 332.739 398.44 335.716 395.293L342.045 397.868L343.84 394.752L346.9 389.437L341.402 385.146Z" fill="white" stroke="#0C0A0A" stroke-width="5" stroke-linecap="round" stroke-linejoin="round"/>
<path d="M318.521 391.911C326.215 391.911 332.453 385.657 332.453 377.943C332.453 370.229 326.215 363.976 318.521 363.976C310.826 363.976 304.589 370.229 304.589 377.943C304.589 385.657 310.826 391.911 318.521 391.911Z" fill="#000001"/>
<path d="M318.521 384.974C322.394 384.974 325.534 381.826 325.534 377.943C325.534 374.06 322.394 370.913 318.521 370.913C314.648 370.913 311.508 374.06 311.508 377.943C311.508 381.826 314.648 384.974 318.521 384.974Z" fill="white" stroke="#0C0A0A" stroke-width="5" stroke-linecap="round" stroke-linejoin="round"/>
<path d="M189.056 315.183C197.11 315.183 203.639 308.637 203.639 300.562C203.639 292.487 197.11 285.942 189.056 285.942C181.001 285.942 174.472 292.487 174.472 300.562C174.472 308.637 181.001 315.183 189.056 315.183Z" stroke="#0C0A0A" stroke-width="4" stroke-linecap="round" stroke-linejoin="round"/>
<path d="M97.7148 73.9324C114.713 73.9324 128.493 60.1174 128.493 43.0757C128.493 26.0339 114.713 12.2189 97.7148 12.2189C80.7165 12.2189 66.9366 26.0339 66.9366 43.0757C66.9366 60.1174 80.7165 73.9324 97.7148 73.9324Z" fill="#C7DEFD" stroke="#0C0A0A" stroke-width="5" stroke-linecap="round" stroke-linejoin="round"/>
<path d="M97.7148 59.77C100.234 59.77 102.276 57.7226 102.276 55.1971C102.276 52.6716 100.234 50.6243 97.7148 50.6243C95.1957 50.6243 93.1536 52.6716 93.1536 55.1971C93.1536 57.7226 95.1957 59.77 97.7148 59.77Z" fill="white" stroke="#0C0A0A" stroke-width="5" stroke-linecap="round" stroke-linejoin="round"/>
<path d="M111.488 50.6965L109.366 50.0035L107.237 38.7212C105.935 31.824 102.625 29.7505 100.249 29.1821V28.5631C100.249 27.3558 99.2736 26.3778 98.0694 26.3778H97.3602C96.156 26.3778 95.1804 27.3558 95.1804 28.5631V29.1821C92.8044 29.7505 89.4942 31.824 88.1928 38.7212L86.0634 50.0035L83.9412 50.6965C82.7136 51.0971 82.0548 52.4325 82.4814 53.6524C82.8054 54.5781 83.6748 55.1971 84.6522 55.1971H110.774C111.751 55.1971 112.622 54.5781 112.945 53.6524C113.371 52.4307 112.712 51.0971 111.485 50.6965H111.488Z" fill="white" stroke="#0C0A0A" stroke-width="3" stroke-linecap="round" stroke-linejoin="round"/>
<path d="M122.738 432.942C122.738 432.942 119.941 438.796 121.567 440.428C123.194 442.059 124.36 440.103 124.36 440.103L127.661 435.059L122.738 432.944V432.942Z" fill="#000001"/>
<path d="M129.798 435.045C129.798 435.045 127.001 440.899 128.626 442.53C130.253 444.161 132.205 440.088 132.205 440.088L134.721 437.16L129.798 435.045Z" fill="#000001"/>
<path d="M50.4252 433.146C50.4252 433.146 47.628 439 49.2534 440.632C50.8788 442.263 52.047 440.307 52.047 440.307L55.3482 435.263L50.4252 433.148V433.146Z" fill="#000001"/>
<path d="M57.4866 435.249C57.4866 435.249 54.6894 441.103 56.3148 442.734C57.942 444.365 59.8932 440.292 59.8932 440.292L62.4096 437.363L57.4866 435.249Z" fill="#000001"/>
<path d="M118.935 120.435C119.391 120.435 119.761 120.075 119.761 119.63C119.761 119.186 119.391 118.825 118.935 118.825C118.479 118.825 118.109 119.186 118.109 119.63C118.109 120.075 118.479 120.435 118.935 120.435Z" fill="#000001"/>
<path d="M125.576 118.367C125.929 118.278 126.126 117.855 126.017 117.423C125.908 116.991 125.534 116.714 125.181 116.803C124.828 116.893 124.631 117.315 124.74 117.747C124.849 118.179 125.223 118.457 125.576 118.367Z" fill="#000001"/>
<path d="M117.999 126.652C118.687 126.652 119.245 126.108 119.245 125.437C119.245 124.767 118.687 124.223 117.999 124.223C117.311 124.223 116.753 124.767 116.753 125.437C116.753 126.108 117.311 126.652 117.999 126.652Z" fill="#FD4056"/>
<path d="M127.543 122.827C128.013 122.723 128.278 122.107 128.134 121.451C127.99 120.795 127.491 120.347 127.02 120.451C126.55 120.555 126.285 121.172 126.429 121.828C126.573 122.484 127.072 122.931 127.543 122.827Z" fill="#FD4056"/>
<path d="M119.358 115.763C119.398 115.658 119.398 115.572 119.39 115.521C119.39 115.514 119.389 115.505 119.385 115.494C119.385 115.492 119.385 115.489 119.383 115.487C119.367 115.438 119.327 115.36 119.241 115.29C119.068 115.151 118.69 115.014 117.954 115.27C117.223 115.53 116.258 116.062 115.621 116.696C115.299 117.006 115.054 117.327 114.921 117.586C114.786 117.844 114.759 118.038 114.833 118.085C114.907 118.132 115.058 118.053 115.285 117.921C115.51 117.788 115.81 117.604 116.156 117.42C116.842 117.039 117.733 116.701 118.384 116.468C119.038 116.243 119.281 115.979 119.362 115.763H119.358Z" fill="#0B0B0C"/>
<path d="M119.326 118.125C118.933 118.226 118.409 118.432 117.873 118.739C116.793 119.347 116.113 120.114 116.219 120.227C116.32 120.339 117.119 119.8 118.147 119.222C119.165 118.632 120.044 118.239 119.999 118.085C119.977 118.017 119.718 118.02 119.326 118.125Z" fill="#010102"/>
<path d="M122.78 115.155C122.958 115.281 123.257 115.353 123.768 115.18C124.283 115.012 124.992 114.821 125.604 114.79C126.218 114.741 126.713 114.844 126.806 114.705C126.855 114.633 126.778 114.48 126.583 114.321C126.392 114.162 126.085 114 125.714 113.897C124.97 113.673 124.007 113.758 123.381 113.966C122.749 114.178 122.593 114.507 122.569 114.713C122.555 114.853 122.598 114.953 122.616 114.98C122.641 115.023 122.693 115.092 122.78 115.151V115.155Z" fill="#0B0B0C"/>
<path d="M126.337 115.954C126.002 115.878 125.518 115.853 124.999 115.97C124.481 116.082 124.047 116.317 123.782 116.535C123.646 116.638 123.554 116.748 123.496 116.828C123.44 116.909 123.421 116.967 123.444 116.997C123.55 117.127 124.209 116.698 125.118 116.512C126.025 116.302 126.806 116.373 126.841 116.223C126.86 116.151 126.671 116.026 126.335 115.952L126.337 115.954Z" fill="#010102"/>
<path d="M125.759 123.185C125.339 122.499 124.625 121.4 124.016 120.39C123.712 119.886 123.435 119.403 123.237 119.015C123.138 118.82 123.061 118.65 123.01 118.517C122.985 118.45 122.967 118.394 122.956 118.352C122.951 118.333 122.947 118.315 122.945 118.304V118.291L122.944 118.288C122.965 118.096 122.834 117.921 122.643 117.891C122.447 117.86 122.261 117.993 122.231 118.19C122.225 118.226 122.224 118.257 122.224 118.288C122.224 118.387 122.242 118.473 122.267 118.564C122.314 118.733 122.389 118.916 122.488 119.127C122.661 119.491 122.904 119.93 123.181 120.399C123.595 121.101 124.081 121.871 124.501 122.534C124.709 122.866 124.902 123.169 125.06 123.425C125.217 123.68 125.339 123.885 125.404 124.008C125.444 124.086 125.453 124.138 125.455 124.18C125.455 124.214 125.447 124.243 125.433 124.277C125.408 124.337 125.348 124.412 125.258 124.486C125.125 124.596 124.934 124.696 124.781 124.759C124.704 124.791 124.637 124.815 124.591 124.831C124.567 124.838 124.549 124.844 124.537 124.847L124.524 124.851H124.522C124.493 124.858 124.463 124.871 124.438 124.887C124.416 124.9 124.177 125.037 123.872 125.165C123.721 125.23 123.554 125.293 123.392 125.336C123.232 125.381 123.079 125.408 122.963 125.407C122.866 125.407 122.803 125.389 122.78 125.372L122.753 125.349C122.746 125.34 122.737 125.325 122.728 125.295C122.67 125.103 122.47 124.995 122.279 125.053C122.089 125.111 121.981 125.311 122.038 125.502C122.071 125.609 122.119 125.708 122.186 125.793C122.285 125.921 122.42 126.011 122.555 126.06C122.692 126.11 122.828 126.127 122.963 126.127C123.181 126.127 123.397 126.083 123.604 126.024C123.914 125.935 124.207 125.807 124.427 125.701C124.583 125.625 124.702 125.56 124.76 125.529C124.861 125.499 125.118 125.414 125.393 125.259C125.566 125.161 125.746 125.037 125.899 124.865C125.975 124.779 126.043 124.679 126.094 124.564C126.144 124.448 126.175 124.317 126.175 124.178C126.175 124.01 126.13 123.835 126.043 123.672C125.977 123.546 125.881 123.384 125.761 123.185H125.759Z" fill="#0C0A0A"/>
<path d="M120.388 127.462C120.388 127.462 121.288 128.648 123.698 128.538C123.849 130.774 121.145 130.75 120.065 129.824C118.985 128.899 120.388 127.462 120.388 127.462Z" fill="white"/>
<path d="M531.103 408.97C531.209 408.744 531.113 408.475 530.888 408.369C530.663 408.263 530.395 408.358 530.289 408.584C530.267 408.627 528.923 411.426 524.92 414.97C523.591 416.147 521.968 417.405 520.004 418.673C520.076 418.763 520.155 418.852 520.243 418.94C520.378 419.076 520.524 419.2 520.673 419.314C522.643 418.031 524.275 416.755 525.614 415.56C529.709 411.908 531.085 409.015 531.106 408.968L531.103 408.97Z" fill="white"/>
<path d="M480.173 443.27C477.7 447.374 476.885 450.495 476.878 450.526C476.815 450.768 476.959 451.013 477.2 451.077C477.441 451.14 477.686 450.995 477.749 450.754C477.77 450.671 478.553 447.751 480.845 443.903C480.685 443.797 480.537 443.68 480.407 443.55C480.323 443.465 480.245 443.371 480.173 443.274V443.27Z" fill="white"/>
<path d="M519.239 419.157C515.448 421.501 510.464 423.84 503.98 425.713C504.02 425.841 504.063 425.969 504.115 426.097C504.178 426.254 504.256 426.404 504.342 426.549C510.935 424.634 516.01 422.234 519.871 419.826C519.781 419.747 519.691 419.666 519.604 419.579C519.467 419.444 519.347 419.301 519.237 419.157H519.239Z" fill="white"/>
<path d="M491.492 431.367C487.3 434.196 484.231 437.461 482.026 440.482C481.545 441.14 481.104 441.788 480.703 442.416C480.811 442.626 480.926 442.792 481.043 442.909C481.117 442.985 481.21 443.059 481.316 443.131C481.772 442.407 482.278 441.657 482.843 440.891C484.974 437.999 487.912 434.891 491.902 432.179C491.809 432.034 491.72 431.888 491.645 431.733C491.585 431.612 491.535 431.49 491.49 431.367H491.492Z" fill="white"/>
<path d="M503.116 425.966C498.884 427.209 495.297 428.914 492.269 430.854C492.316 431.018 492.376 431.179 492.453 431.338C492.509 431.453 492.577 431.569 492.651 431.683C495.65 429.748 499.219 428.045 503.453 426.807C503.39 426.686 503.329 426.563 503.278 426.433C503.215 426.278 503.163 426.121 503.114 425.966H503.116Z" fill="white"/>
<path d="M480.703 442.416C480.641 442.295 480.582 442.162 480.526 442.012C480.298 441.404 480.137 440.581 480.04 439.663C479.941 438.744 479.903 437.726 479.903 436.71C479.903 435.079 480.002 433.456 480.1 432.242C480.148 431.636 480.199 431.13 480.235 430.778C480.253 430.602 480.269 430.464 480.28 430.371C480.285 430.324 480.289 430.288 480.292 430.264C480.296 430.241 480.296 430.228 480.296 430.228C480.326 429.981 480.15 429.755 479.903 429.725C479.657 429.694 479.432 429.871 479.401 430.118C479.401 430.129 479.002 433.375 479.002 436.708C479.002 438.092 479.07 439.489 479.27 440.691C479.371 441.292 479.502 441.844 479.684 442.326C479.817 442.68 479.975 442.996 480.173 443.266C480.245 443.366 480.323 443.458 480.407 443.542C480.539 443.672 480.686 443.79 480.845 443.896C481.135 444.089 481.466 444.246 481.831 444.38C482.681 444.69 483.716 444.876 484.814 444.99C485.91 445.103 487.069 445.141 488.151 445.141C490.606 445.141 492.667 444.941 492.676 444.941C492.923 444.917 493.105 444.697 493.081 444.448C493.058 444.201 492.838 444.019 492.59 444.042H492.568C492.343 444.066 490.408 444.239 488.151 444.239C486.738 444.239 485.197 444.17 483.885 443.957C483.23 443.853 482.63 443.71 482.141 443.53C481.811 443.411 481.534 443.272 481.316 443.124C481.21 443.052 481.118 442.978 481.043 442.902C480.926 442.786 480.811 442.62 480.703 442.409V442.416Z" fill="white"/>
<path d="M492.269 430.854C492.19 430.576 492.154 430.291 492.154 429.997C492.154 429.326 492.347 428.613 492.653 427.925C493.11 426.893 493.814 425.921 494.402 425.215C494.698 424.863 494.962 424.576 495.153 424.378C495.248 424.278 495.324 424.203 495.376 424.152C495.401 424.127 495.423 424.107 495.436 424.094L495.45 424.08L495.454 424.076C495.635 423.907 495.646 423.621 495.475 423.439C495.306 423.257 495.022 423.246 494.84 423.418C494.827 423.43 493.949 424.249 493.061 425.469C492.617 426.079 492.17 426.79 491.83 427.557C491.49 428.324 491.254 429.151 491.254 429.995C491.254 430.452 491.326 430.916 491.49 431.365C491.535 431.488 491.585 431.61 491.645 431.731C491.72 431.885 491.809 432.033 491.902 432.177C492.386 432.924 493.097 433.549 493.902 434.083C495.346 435.036 497.106 435.707 498.514 436.149C499.921 436.591 500.972 436.799 500.983 436.802C501.226 436.851 501.464 436.692 501.512 436.447C501.561 436.203 501.403 435.965 501.158 435.916L501.14 435.913C500.938 435.871 499.102 435.483 497.146 434.712C496.166 434.328 495.158 433.846 494.314 433.274C493.607 432.798 493.024 432.258 492.651 431.681C492.577 431.567 492.509 431.453 492.453 431.336C492.376 431.177 492.314 431.017 492.269 430.852V430.854Z" fill="white"/>
<path d="M503.98 425.713C503.825 425.213 503.759 424.72 503.759 424.237C503.759 423.506 503.91 422.791 504.146 422.124C504.497 421.122 505.031 420.227 505.485 419.543C505.712 419.2 505.917 418.911 506.074 418.679C506.153 418.561 506.218 418.459 506.272 418.361C506.299 418.311 506.324 418.262 506.345 418.204C506.367 418.146 506.39 418.081 506.392 417.971C506.392 417.722 506.191 417.52 505.942 417.52C505.721 417.52 505.537 417.681 505.499 417.892C505.494 417.903 505.483 417.923 505.469 417.948C505.426 418.024 505.348 418.141 505.249 418.285C505.076 418.538 504.841 418.872 504.585 419.269C504.202 419.864 503.771 420.604 503.437 421.443C503.102 422.284 502.857 423.228 502.857 424.235C502.857 424.798 502.936 425.379 503.114 425.964C503.161 426.119 503.215 426.274 503.278 426.431C503.33 426.561 503.39 426.684 503.453 426.805C503.825 427.51 504.392 428.07 505.053 428.503C506.218 429.264 507.676 429.672 509.062 429.905C510.448 430.136 511.763 430.183 512.635 430.183C513.274 430.183 513.673 430.158 513.68 430.156C513.929 430.14 514.116 429.925 514.1 429.676C514.084 429.427 513.869 429.239 513.621 429.255H513.607C513.531 429.261 513.173 429.281 512.635 429.281C511.519 429.281 509.627 429.196 507.895 428.736C507.029 428.506 506.209 428.183 505.546 427.749C505.037 427.413 504.626 427.018 504.34 426.545C504.254 426.402 504.176 426.253 504.113 426.094C504.061 425.966 504.018 425.837 503.978 425.709L503.98 425.713Z" fill="white"/>
<path d="M520.002 418.673C519.802 418.424 519.66 418.17 519.559 417.908C519.422 417.553 519.365 417.184 519.365 416.809C519.363 415.923 519.701 415.008 520.052 414.324C520.227 413.983 520.402 413.698 520.533 413.501C520.598 413.404 520.652 413.326 520.69 413.276C520.708 413.25 520.722 413.231 520.731 413.22L520.742 413.207H520.744V413.205C520.897 413.009 520.862 412.725 520.666 412.572C520.47 412.419 520.187 412.453 520.034 412.65C520.022 412.666 519.638 413.157 519.251 413.915C518.866 414.674 518.468 415.699 518.465 416.809C518.465 417.276 518.539 417.76 518.719 418.231C518.839 418.549 519.012 418.859 519.237 419.157C519.347 419.301 519.467 419.442 519.604 419.579C519.691 419.666 519.779 419.747 519.871 419.826C520.573 420.436 521.392 420.823 522.212 421.057C523.141 421.322 524.075 421.402 524.882 421.404C526.214 421.404 527.202 421.185 527.222 421.18C527.465 421.126 527.618 420.886 527.564 420.642C527.51 420.398 527.27 420.245 527.027 420.299C526.991 420.308 526.077 420.501 524.882 420.501C524.135 420.501 523.278 420.426 522.459 420.191C521.818 420.007 521.204 419.727 520.672 419.318C520.522 419.202 520.378 419.079 520.241 418.944C520.153 418.856 520.074 418.767 520.002 418.677V418.673Z" fill="white"/>
<path d="M594 449.743H3.81238V453.352H594V449.743Z" fill="black"/>
<path d="M268.234 239.998H251.969C245.166 239.998 239.65 245.528 239.65 252.349V282.325C239.65 289.146 245.166 294.676 251.969 294.676H268.234C275.038 294.676 280.553 289.146 280.553 282.325V252.349C280.553 245.528 275.038 239.998 268.234 239.998Z" fill="white" stroke="#0C0A0A" stroke-width="5" stroke-linecap="round" stroke-linejoin="round"/>
<path d="M115.639 283.635C115.405 283.55 115.148 283.673 115.063 283.908L105.334 311.02C105.25 311.255 105.372 311.513 105.606 311.597C105.84 311.682 106.097 311.56 106.182 311.325L115.911 284.213C115.996 283.978 115.873 283.72 115.639 283.635Z" fill="white"/>
<path d="M236.734 307.23L231.1 311.509L232.16 313.664L240.457 310.448H236.585L236.734 307.23Z" fill="white" stroke="#0C0A0A" stroke-width="4.53" stroke-linecap="round" stroke-linejoin="round"/>
<path d="M246.235 311.702C246.235 311.702 235.94 314.4 231.613 312.009L230.218 313.342C230.218 313.342 240.863 317.179 244.978 314.905L246.235 311.702Z" fill="white" stroke="#0C0A0A" stroke-width="4.53" stroke-linecap="round" stroke-linejoin="round"/>
<path d="M231.613 312.009C230.216 307.58 238.93 304.168 238.93 304.168C238.93 300.14 234.434 303.127 234.349 303.183C234.409 303.114 236.79 300.317 232.706 300.317C228.622 300.317 228.404 303.964 228.404 303.964C228.404 301.337 225.981 298.586 224.609 299C223.238 298.586 221.47 301.337 221.47 303.964C221.47 303.964 221.305 300.317 217.168 300.317C213.032 300.317 215.465 303.114 215.525 303.183C215.44 303.127 210.096 302.697 213.462 304.865C213.462 304.865 219.658 307.579 218.261 312.009C216.866 316.437 203.639 319.595 203.639 332.881C203.639 344.335 220.331 344.365 224.937 344.156C229.543 344.365 246.235 344.333 246.235 332.881C246.235 319.595 233.008 316.437 231.613 312.009Z" fill="#FED964" stroke="#0C0A0A" stroke-width="3" stroke-linecap="round" stroke-linejoin="round"/>
<path d="M217.058 311.258C217.058 311.258 220.615 313.342 224.937 313.342C229.259 313.342 231.613 312.009 231.613 312.009C231.613 312.009 232.844 310.742 231.613 310.062C230.382 309.381 228.074 311.702 224.609 311.702C220.923 311.702 217.058 308.409 217.058 311.258Z" fill="white" stroke="#0C0A0A" stroke-width="4.53" stroke-linecap="round" stroke-linejoin="round"/>
<path d="M224.937 328.05C222.628 328.05 220.766 326.426 220.855 324.452C220.936 322.656 222.66 321.192 224.777 321.126C226.863 321.059 228.618 322.319 228.96 323.99C229.03 324.332 229.376 324.587 229.788 324.587C230.31 324.587 230.704 324.186 230.614 323.751C230.139 321.413 227.704 319.644 224.795 319.702C221.738 319.763 219.245 321.876 219.173 324.47C219.098 327.222 221.706 329.474 224.935 329.474C227.245 329.474 229.106 331.098 229.018 333.072C228.937 334.868 227.212 336.331 225.095 336.398C223.009 336.465 221.254 335.205 220.912 333.534C220.842 333.191 220.496 332.937 220.084 332.937C219.562 332.937 219.168 333.337 219.258 333.772C219.733 336.111 222.169 337.88 225.076 337.822C228.132 337.76 230.625 335.645 230.697 333.054C230.773 330.302 228.164 328.05 224.935 328.05H224.937Z" fill="white"/>
<path d="M224.937 317.526C224.48 317.526 224.111 317.809 224.111 318.157V339.834C224.111 340.182 224.482 340.466 224.937 340.466C225.392 340.466 225.763 340.182 225.763 339.834V318.157C225.763 317.809 225.392 317.526 224.937 317.526Z" fill="white"/>
<path d="M533.574 72.3227H439.639V81.786H533.574V72.3227Z" fill="#DDB5A1" stroke="#0C0A0A" stroke-width="3" stroke-linecap="round" stroke-linejoin="round"/>
<path d="M426.919 2.2016H418.923V24.0534H426.919V2.2016Z" fill="#BED9FD"/>
<path d="M436.997 2.2016H429.001V24.0534H436.997V2.2016Z" fill="#BED9FD"/>
<path d="M447.077 2.2016H439.081V24.0534H447.077V2.2016Z" fill="#BED9FD"/>
<path d="M445.835 5.76027H440.93V8.60611H445.835V5.76027Z" fill="white"/>
<path d="M435.452 5.76027H430.547V8.60611H435.452V5.76027Z" fill="white"/>
<path d="M435.452 10.122H430.547V12.9678H435.452V10.122Z" fill="white"/>
<path d="M422.838 11.0676C424.195 11.0676 425.295 9.96473 425.295 8.6043C425.295 7.24388 424.195 6.14103 422.838 6.14103C421.481 6.14103 420.381 7.24388 420.381 8.6043C420.381 9.96473 421.481 11.0676 422.838 11.0676Z" fill="white"/>
<path d="M467.269 24.0534H412.978V29.5232H467.269V24.0534Z" fill="#BED9FD"/>
<path d="M349.126 192.684C349.126 190.773 347.58 189.223 345.674 189.223H305.393C303.487 189.223 301.941 190.773 301.941 192.684V192.94H349.126V192.684Z" fill="#000001"/>
<path d="M301.941 192.94V224.99C301.941 226.901 303.487 228.451 305.393 228.451H345.674C347.58 228.451 349.126 226.901 349.126 224.99V192.94H301.941Z" fill="white" stroke="#0C0A0A" stroke-width="4.53" stroke-linecap="round" stroke-linejoin="round"/>
<path d="M323.42 197.906C321.309 198.309 319.378 199.224 317.763 200.519L325.852 210.668L323.42 197.906Z" fill="#FD4056" stroke="#0C0A0A" stroke-width="3" stroke-linecap="round" stroke-linejoin="round"/>
<path d="M333.308 200.043C331.198 198.552 328.628 197.677 325.85 197.677C325.019 197.677 324.207 197.756 323.419 197.906L325.85 210.668C325.85 210.668 330.478 203.869 333.308 200.043Z" fill="#FED964" stroke="#0C0A0A" stroke-width="3" stroke-linecap="round" stroke-linejoin="round"/>
<path d="M338.128 206.498L325.852 210.668L317.763 200.519C314.795 202.9 312.892 206.561 312.892 210.668C312.892 217.843 318.694 223.66 325.85 223.66C333.007 223.66 338.809 217.843 338.809 210.668C338.809 209.21 338.569 207.806 338.126 206.498H338.128Z" fill="#C7DEFD" stroke="#0C0A0A" stroke-width="3" stroke-linecap="round" stroke-linejoin="round"/>
<path d="M338.128 206.498C337.239 203.867 335.531 201.613 333.31 200.043C330.48 203.869 325.852 210.668 325.852 210.668L338.128 206.498Z" fill="#25A9E1" stroke="#0C0A0A" stroke-width="3" stroke-linecap="round" stroke-linejoin="round"/>
<path d="M260.102 270.81C273.094 270.81 283.626 260.251 283.626 247.226C283.626 234.201 273.094 223.642 260.102 223.642C247.11 223.642 236.578 234.201 236.578 247.226C236.578 260.251 247.11 270.81 260.102 270.81Z" fill="white" stroke="#0C0A0A" stroke-width="5" stroke-linecap="round" stroke-linejoin="round"/>
<path d="M270.691 253.834V260.693H249.514V253.834C249.514 249.38 253.114 245.771 257.557 245.771H258.102C255.64 244.968 253.861 242.647 253.861 239.914C253.861 236.512 256.612 233.754 260.005 233.754C263.398 233.754 266.148 236.512 266.148 239.914C266.148 242.649 264.368 244.968 261.907 245.771H262.652C267.095 245.771 270.695 249.38 270.695 253.834H270.691Z" fill="white" stroke="#0C0A0A" stroke-width="5" stroke-linecap="round" stroke-linejoin="round"/>
<path d="M283.385 161.724L280.69 164.503L274.896 170.312C274.192 171.018 273.051 171.018 272.347 170.312L266.553 164.503L263.858 161.724C261.776 159.636 261.776 156.249 263.858 154.161C264.901 153.116 266.265 152.595 267.631 152.595C268.997 152.595 270.362 153.116 271.402 154.161L272.651 155.413C273.186 155.949 274.055 155.949 274.59 155.413L275.839 154.161C276.881 153.116 278.246 152.595 279.61 152.595C280.975 152.595 282.341 153.116 283.383 154.161C285.466 156.249 285.466 159.636 283.383 161.724H283.385Z" fill="#FD4056"/>
<path d="M326.81 152.19C326.81 152.19 318.384 148.108 317.147 141.063L316.894 139.459C316.715 138.337 315.751 137.51 314.617 137.51C313.33 137.51 312.293 138.566 312.311 139.856C312.356 143.07 312.129 147.217 313.427 150.653C309.996 150.653 305.879 149.964 304.038 149.863C301.822 149.742 299.977 151.546 300.046 153.771L300.29 163.161C300.29 167.234 303.887 169.706 307.215 170.626C310.183 171.038 316.525 170.626 319.318 170.626C320.506 170.626 321.507 170.612 322.353 170.588C324.835 170.52 326.81 168.482 326.81 165.994V152.19Z" fill="#25A9E1" stroke="#0C0A0A" stroke-width="5" stroke-linecap="round" stroke-linejoin="round"/>
<path d="M333.356 151.046H332.622C330.612 151.046 328.982 152.68 328.982 154.695V165.833C328.982 167.848 330.612 169.482 332.622 169.482H333.356C335.366 169.482 336.996 167.848 336.996 165.833V154.695C336.996 152.68 335.366 151.046 333.356 151.046Z" fill="#25A9E1" stroke="#0C0A0A" stroke-width="5" stroke-linecap="round" stroke-linejoin="round"/>
</g>
<defs>
<clipPath id="clip0_4_34">
<rect width="594" height="453" fill="white"/>
</clipPath>
</defs>
</svg>
