<svg width="512" height="512" viewBox="0 0 512 512" fill="none" xmlns="http://www.w3.org/2000/svg">
<g clip-path="url(#clip0_89_6)">
<path d="M42.6667 320C42.6667 331.733 52.2667 341.333 64 341.333H234.667C246.4 341.333 256 350.933 256 362.667C256 374.4 246.4 384 234.667 384H64C28.8 384 0 355.2 0 320C0 292.267 17.92 268.8 42.6667 259.84V106.667C42.6667 47.7867 90.4533 0 149.333 0H362.667C421.547 0 469.333 47.7867 469.333 106.667V128C469.333 139.733 459.733 149.333 448 149.333C436.267 149.333 426.667 139.733 426.667 128V106.667C426.667 71.4667 397.867 42.6667 362.667 42.6667H149.333C114.133 42.6667 85.3333 71.4667 85.3333 106.667V256H181.333C187.093 256 192.427 258.347 196.48 262.187L211.627 277.333H234.88C246.613 277.333 256.213 286.933 256.213 298.667C256.213 310.4 246.613 320 234.88 320H202.88C197.12 320 191.787 317.653 187.733 313.813L172.587 298.667H64C52.2667 298.667 42.6667 308.267 42.6667 320ZM512 277.333V426.667C512 473.813 473.813 512 426.667 512H384C336.853 512 298.667 473.813 298.667 426.667V277.333C298.667 230.187 336.853 192 384 192H426.667C473.813 192 512 230.187 512 277.333ZM469.333 277.333C469.333 253.867 450.133 234.667 426.667 234.667H384C360.533 234.667 341.333 253.867 341.333 277.333V426.667C341.333 450.133 360.533 469.333 384 469.333H426.667C450.133 469.333 469.333 450.133 469.333 426.667V277.333Z" fill="#3B4856"/>
</g>
<defs>
<clipPath id="clip0_89_6">
<rect width="512" height="512" fill="white"/>
</clipPath>
</defs>
</svg>
