<svg width="512" height="512" viewBox="0 0 512 512" fill="none" xmlns="http://www.w3.org/2000/svg">
<g clip-path="url(#clip0_89_2)">
<path d="M384 256C384 267.776 374.443 277.333 362.667 277.333C350.891 277.333 341.333 267.776 341.333 256C341.333 244.224 350.891 234.667 362.667 234.667C374.443 234.667 384 244.224 384 256ZM149.333 106.667C161.109 106.667 170.667 97.1307 170.667 85.3333C170.667 61.8027 189.803 42.6667 213.333 42.6667C236.864 42.6667 256 61.8027 256 85.3333C256 97.1307 265.557 106.667 277.333 106.667C289.109 106.667 298.667 97.1307 298.667 85.3333C298.667 38.272 260.395 0 213.333 0C166.272 0 128 38.272 128 85.3333C128 97.1307 137.557 106.667 149.333 106.667ZM512 277.333V320C512 343.595 496.043 357.952 478.549 361.685C464.448 396.971 438.613 426.773 405.333 446.037V448C405.333 483.285 376.619 512 341.333 512C313.515 512 289.792 494.165 280.981 469.333H230.997C222.187 494.165 198.464 512 170.645 512C135.36 512 106.645 483.285 106.645 448V446.315C50.4319 413.909 17.4293 352.939 21.6746 287.36C23.0186 266.496 28.2879 246.677 36.7146 228.565C15.0186 218.304 -0.0427246 196.224 -0.0427246 170.667C-0.0427246 135.381 28.6719 106.667 63.9573 106.667C75.7333 106.667 85.2906 116.203 85.2906 128C85.2906 139.797 75.7333 149.333 63.9573 149.333C52.1813 149.333 42.6239 158.891 42.6239 170.667C42.6239 181.141 50.2186 189.867 60.1813 191.659C92.6293 152.768 142.379 128 197.632 128H312.043C327.68 96.4693 356.885 74.4107 395.819 65.152C408.427 62.1867 421.483 65.088 431.68 73.1307C442.027 81.3227 447.979 93.568 447.979 106.752V186.005C460.949 200.747 471.317 217.6 478.528 235.648C496.043 239.381 512 253.739 512 277.333ZM469.333 277.333H463.061C453.632 277.333 445.312 271.125 442.624 262.08C436.779 242.453 425.984 224.192 411.413 209.237C407.509 205.248 405.333 199.893 405.333 194.347V106.752C384.533 111.701 357.013 124.459 346.368 156.565C343.36 165.589 334.571 171.797 325.248 171.157C323.797 171.093 197.675 170.688 197.675 170.688C127.211 170.688 68.608 223.147 64.2773 290.133C60.864 342.805 89.4719 391.509 137.173 414.187C144.619 417.728 149.333 425.237 149.333 433.451V448.021C149.333 459.797 158.912 469.355 170.667 469.355C182.421 469.355 192 459.797 192 448.021C192 436.245 201.557 426.688 213.333 426.688H298.667C310.443 426.688 320 436.224 320 448.021C320 459.819 329.579 469.355 341.333 469.355C353.088 469.355 362.667 459.797 362.667 448.021V433.216C362.667 425.003 367.381 417.515 374.805 413.973C407.701 398.272 432.405 369.579 442.624 335.296C445.312 326.251 453.632 320.043 463.061 320.043H469.333V277.376V277.333Z" fill="#3B4856"/>
</g>
<defs>
<clipPath id="clip0_89_2">
<rect width="512" height="512" fill="white"/>
</clipPath>
</defs>
</svg>
